<?xml version="1.0" encoding="utf-8"?>
<!-- Generator: Adobe Illustrator 23.0.2, SVG Export Plug-In . SVG Version: 6.00 Build 0)  -->
<svg version="1.1" id="Layer_1" xmlns="http://www.w3.org/2000/svg" xmlns:xlink="http://www.w3.org/1999/xlink" x="0px" y="0px"
	 viewBox="0 0 144.6 144.6" style="enable-background:new 0 0 144.6 144.6;" xml:space="preserve">
<style type="text/css">
	.st0{fill:url(#SVGID_1_);}
	.st1{fill:url(#SVGID_2_);}
	.st2{fill:url(#SVGID_3_);}
	.st3{fill:url(#SVGID_4_);}
	.st4{fill:#FFFFFF;}
	.st5{fill:#00FF79;}
</style>
<title>automatizacion</title>
<g>
	<g id="Layer_1-2">
		
			<linearGradient id="SVGID_1_" gradientUnits="userSpaceOnUse" x1="72.2976" y1="113.26" x2="72.2976" y2="13.4299" gradientTransform="matrix(1 0 0 -1 0 146)">
			<stop  offset="0" style="stop-color:#00FF79;stop-opacity:0"/>
			<stop  offset="9.000000e-02" style="stop-color:#00FF79;stop-opacity:4.000000e-02"/>
			<stop  offset="0.25" style="stop-color:#00FF79;stop-opacity:0.15"/>
			<stop  offset="0.46" style="stop-color:#00FF79;stop-opacity:0.33"/>
			<stop  offset="0.71" style="stop-color:#00FF79;stop-opacity:0.58"/>
			<stop  offset="0.99" style="stop-color:#00FF79;stop-opacity:0.89"/>
			<stop  offset="1" style="stop-color:#00FF79;stop-opacity:0.9"/>
		</linearGradient>
		<path class="st0" d="M126.5,57.8l-4.7-0.8c-0.3,0-0.6-0.3-0.7-0.6c-0.5-1.5-1.1-3-1.8-4.4c-0.2-0.3-0.1-0.7,0.1-0.9l2.8-3.9
			c0.2-0.4,0.2-0.8-0.1-1.2L114,38c-0.3-0.3-0.8-0.3-1.2-0.1l-3.8,2.8c-0.3,0.2-0.7,0.2-0.9,0c-1.4-0.7-2.9-1.3-4.4-1.8
			c-0.3-0.1-0.6-0.4-0.6-0.7l-0.8-4.7c-0.1-0.4-0.5-0.8-0.9-0.8H90c-0.4,0-0.8,0.3-0.9,0.8l-0.8,4.7c0,0.3-0.3,0.6-0.6,0.7
			c-1.5,0.5-3,1.1-4.4,1.8c-0.3,0.2-0.7,0.2-0.9,0l-3.9-2.8c-0.4-0.2-0.8-0.2-1.2,0.1l-8,8.1c-0.3,0.3-0.4,0.8-0.1,1.2l2.8,3.9
			c0.2,0.3,0.2,0.6,0.1,0.9c-0.2,0.4-0.4,0.9-0.6,1.3c-2.1-0.6-4.2-1.1-6.3-1.4l-5-7.9c-0.6-1-1.8-1.4-2.9-1.2l-9.6,2.2
			c-1.1,0.3-2,1.2-2.1,2.3l-1.1,9.3c-1.9,1.1-3.7,2.3-5.3,3.7l-9.2-2.1c-1.1-0.2-2.2,0.3-2.8,1.2l-5.3,8.4c-0.6,1-0.5,2.2,0.1,3.1
			l5.8,7.4c-0.6,2.1-0.9,4.2-1.1,6.4l-7.9,5c-1,0.6-1.5,1.8-1.2,2.9l2.2,9.7c0.3,1.1,1.2,1.9,2.3,2.1l9.3,1.1
			c1.1,1.9,2.4,3.7,3.8,5.4l-2.1,9.1c-0.3,1.1,0.2,2.3,1.2,2.9l8.4,5.3c1,0.6,2.2,0.5,3.1-0.2l7.4-5.8c2.1,0.6,4.2,0.9,6.4,1.1
			l5,7.9c0.5,0.8,1.4,1.3,2.3,1.3c0.2,0,0.4,0,0.6-0.1l9.6-2.2c1.1-0.3,2-1.2,2.1-2.3l1.1-9.3c1.9-1.1,3.7-2.3,5.3-3.7l9.2,2.1
			c1.1,0.2,2.3-0.2,2.9-1.2l5.3-8.4c0.6-1,0.5-2.2-0.2-3.1L96.8,97c-0.1-0.3-0.1-0.6-0.1-0.9h-0.2h4.8c0.4,0,0.8-0.3,0.9-0.8
			l0.8-4.7c0.1-0.3,0.3-0.6,0.6-0.7c1.5-0.5,2.9-1.1,4.3-1.8c0.3-0.2,0.7-0.1,0.9,0.1l3.9,2.8c0.4,0.2,0.8,0.2,1.2-0.1l8.1-8.1
			c0.3-0.3,0.3-0.8,0.1-1.2l-2.8-3.9c-0.2-0.3-0.2-0.6-0.1-0.9c0.7-1.4,1.3-2.9,1.8-4.4c0.1-0.3,0.4-0.6,0.7-0.6l4.7-0.8
			c0.4-0.1,0.8-0.4,0.8-0.9V58.7C127.3,58.3,127,57.9,126.5,57.8z"/>
		
			<linearGradient id="SVGID_2_" gradientUnits="userSpaceOnUse" x1="72.5597" y1="1.8203" x2="72.5597" y2="146" gradientTransform="matrix(1 0 0 -1 0 146)">
			<stop  offset="0" style="stop-color:#00FF79;stop-opacity:0.1"/>
			<stop  offset="0.17" style="stop-color:#01FD7B;stop-opacity:0.11"/>
			<stop  offset="0.32" style="stop-color:#04F681;stop-opacity:0.15"/>
			<stop  offset="0.45" style="stop-color:#0AEA8B;stop-opacity:0.22"/>
			<stop  offset="0.57" style="stop-color:#12D999;stop-opacity:0.31"/>
			<stop  offset="0.69" style="stop-color:#1CC3AB;stop-opacity:0.43"/>
			<stop  offset="0.81" style="stop-color:#29A8C2;stop-opacity:0.58"/>
			<stop  offset="0.92" style="stop-color:#3888DC;stop-opacity:0.75"/>
			<stop  offset="1" style="stop-color:#446EF2;stop-opacity:0.9"/>
		</linearGradient>
		<path class="st1" d="M77.1,141.5c-0.2-1.6,1-3.1,2.7-3.3l0,0c1.6-0.2,3.1,1,3.3,2.6l0,0c0.2,1.7-1,3.1-2.6,3.3l0,0l0,0l0,0
			c-0.1,0-0.2,0-0.3,0l0,0C78.6,144.2,77.3,143,77.1,141.5z M58.7,143.3c-1.6-0.3-2.7-1.9-2.4-3.5l0,0c0.3-1.6,1.9-2.7,3.5-2.4l0,0
			c1.6,0.3,2.7,1.9,2.4,3.5l0,0c-0.3,1.4-1.5,2.4-2.9,2.4l0,0C59,143.4,58.8,143.4,58.7,143.3z M97.6,136.9c-0.7-1.5,0-3.3,1.5-3.9
			l0,0c1.5-0.7,3.3,0,4,1.5l0,0c0.7,1.5,0,3.3-1.5,4l0,0c0,0,0,0,0,0l0,0c-0.4,0.2-0.8,0.3-1.2,0.3l0,0
			C99.2,138.7,98.1,138.1,97.6,136.9z M38.1,136c-1.5-0.8-2-2.6-1.2-4.1l0,0c0.8-1.5,2.6-2,4.1-1.2l0,0c1.5,0.8,2,2.6,1.2,4.1l0,0
			c-0.5,1-1.6,1.6-2.6,1.6l0,0C39,136.4,38.5,136.3,38.1,136z M115.7,126.5c-1.1-1.2-1-3.2,0.3-4.2l0,0c1.2-1.1,3.1-1,4.2,0.3l0,0
			c1.1,1.2,1,3.1-0.3,4.2l0,0c0,0,0,0,0,0l0,0c-0.6,0.5-1.3,0.7-2,0.7l0,0C117.1,127.5,116.3,127.1,115.7,126.5z M20.7,122.9
			L20.7,122.9L20.7,122.9c-1.2-1.2-1.1-3.1,0-4.2l0,0c1.2-1.2,3.1-1.1,4.2,0l0,0c1.2,1.2,1.1,3.1,0,4.2l0,0
			c-0.6,0.6-1.3,0.8-2.1,0.8l0,0C22,123.8,21.2,123.5,20.7,122.9z M129.9,111.1c-1.4-0.9-1.9-2.7-1-4.1l0,0c0.9-1.4,2.7-1.9,4.1-1
			l0,0c1.4,0.9,1.8,2.7,1,4.1l0,0c-0.6,0.9-1.6,1.4-2.6,1.4l0,0C130.9,111.5,130.3,111.3,129.9,111.1z M7.9,105.2
			c-0.8-1.5-0.2-3.3,1.3-4l0,0c1.5-0.8,3.3-0.2,4,1.3l0,0c0.8,1.5,0.2,3.3-1.3,4l0,0c-0.4,0.2-0.9,0.3-1.4,0.3l0,0
			C9.5,106.8,8.4,106.2,7.9,105.2z M138.8,92.1c-1.6-0.4-2.6-2-2.2-3.6l0,0c0.4-1.6,2-2.6,3.6-2.2l0,0c1.6,0.4,2.6,2,2.2,3.6l0,0
			c-0.3,1.4-1.6,2.3-2.9,2.3l0,0C139.3,92.2,139.1,92.2,138.8,92.1z M1,84.5L1,84.5L1,84.5c-0.3-1.6,0.8-3.2,2.5-3.5l0,0
			c1.6-0.3,3.2,0.8,3.5,2.5l0,0c0.3,1.6-0.8,3.2-2.5,3.5l0,0c-0.2,0-0.3,0-0.5,0l0,0C2.5,87,1.3,86,1,84.5z M138.5,68.6L138.5,68.6
			c-0.1-1.7,1.2-3.1,2.8-3.2l0,0c1.7-0.1,3.1,1.2,3.2,2.8l0,0l0,0l0,0c0.1,1.7-1.2,3.1-2.8,3.2l0,0c-0.1,0-0.1,0-0.2,0l0,0
			C139.9,71.4,138.6,70.2,138.5,68.6z M3.2,66.1c-1.6-0.2-2.8-1.7-2.6-3.4l0,0c0,0,0,0,0,0l0,0C0.8,61,2.4,59.9,4,60.1l0,0
			c1.6,0.2,2.8,1.7,2.6,3.4l0,0c-0.2,1.5-1.5,2.6-3,2.6l0,0C3.5,66.1,3.3,66.1,3.2,66.1z M134.4,49L134.4,49
			c-0.6-1.5,0.2-3.3,1.8-3.9l0,0c1.5-0.6,3.3,0.2,3.9,1.8l0,0l0,0l0,0c0.6,1.5-0.2,3.3-1.8,3.9l0,0c-0.3,0.1-0.7,0.2-1.1,0.2l0,0
			C136,50.9,134.9,50.2,134.4,49z M8.2,45.7c-1.5-0.7-2.1-2.5-1.5-4l0,0c0.7-1.5,2.5-2.2,4-1.5l0,0c1.5,0.7,2.1,2.5,1.4,4l0,0
			c-0.5,1.1-1.6,1.7-2.7,1.7l0,0C9,46,8.6,45.9,8.2,45.7z M124.6,31.5c-1-1.3-0.8-3.2,0.5-4.2l0,0c1.3-1,3.2-0.8,4.2,0.5l0,0l0,0
			l0,0c1,1.3,0.8,3.2-0.5,4.2l0,0c-0.5,0.4-1.2,0.6-1.8,0.6l0,0C126.1,32.7,125.2,32.3,124.6,31.5z M19.1,27.8
			c-1.2-1.1-1.3-3-0.2-4.2l0,0c1.1-1.2,3-1.3,4.2-0.2l0,0c1.2,1.1,1.3,3,0.2,4.2h0c-0.6,0.7-1.4,1-2.2,1l0,0
			C20.4,28.6,19.6,28.4,19.1,27.8z M110.1,17.8c-1.4-0.9-1.7-2.8-0.8-4.2l0,0c0.9-1.4,2.8-1.7,4.2-0.8l0,0c1.4,0.9,1.7,2.8,0.8,4.2
			l0,0c-0.6,0.8-1.5,1.3-2.5,1.3l0,0C111.2,18.3,110.6,18.1,110.1,17.8z M34.8,14c-0.8-1.4-0.4-3.3,1.1-4.1l0,0
			c1.4-0.8,3.3-0.4,4.1,1.1l0,0c0.8,1.4,0.4,3.3-1.1,4.1l0,0c-0.5,0.3-1,0.4-1.5,0.4l0,0C36.3,15.5,35.3,14.9,34.8,14z M92.1,9
			c-1.6-0.5-2.5-2.2-2-3.8l0,0c0.5-1.6,2.2-2.5,3.8-2l0,0c1.6,0.5,2.5,2.2,2,3.8l0,0c-0.4,1.3-1.6,2.1-2.9,2.1l0,0
			C92.7,9.1,92.4,9.1,92.1,9z M53.9,5.4c-0.4-1.6,0.6-3.2,2.2-3.6l0,0c1.6-0.4,3.2,0.6,3.6,2.3l0,0c0.4,1.6-0.6,3.2-2.3,3.6l0,0
			c-0.2,0-0.4,0.1-0.7,0.1l0,0C55.4,7.8,54.2,6.8,53.9,5.4z M69.3,3c0-1.7,1.3-3,3-3l0,0c1.7,0,3,1.3,3,3l0,0c0,1.7-1.3,3-3,3l0,0
			C70.6,6,69.3,4.7,69.3,3z"/>
		
			<linearGradient id="SVGID_3_" gradientUnits="userSpaceOnUse" x1="72.4273" y1="18.4805" x2="72.4273" y2="129.02" gradientTransform="matrix(1 0 0 -1 0 146)">
			<stop  offset="0" style="stop-color:#00FF79;stop-opacity:0.1"/>
			<stop  offset="0.17" style="stop-color:#01FD7B;stop-opacity:0.11"/>
			<stop  offset="0.32" style="stop-color:#04F681;stop-opacity:0.15"/>
			<stop  offset="0.45" style="stop-color:#0AEA8B;stop-opacity:0.22"/>
			<stop  offset="0.57" style="stop-color:#12D999;stop-opacity:0.31"/>
			<stop  offset="0.69" style="stop-color:#1CC3AB;stop-opacity:0.43"/>
			<stop  offset="0.81" style="stop-color:#29A8C2;stop-opacity:0.58"/>
			<stop  offset="0.92" style="stop-color:#3888DC;stop-opacity:0.75"/>
			<stop  offset="1" style="stop-color:#446EF2;stop-opacity:0.9"/>
		</linearGradient>
		<path class="st2" d="M68.6,127.5c-1.7-0.1-2.9-1.5-2.8-3.2l0,0c0.1-1.6,1.5-2.9,3.2-2.8l0,0c1.6,0.1,2.9,1.5,2.8,3.2l0,0
			c-0.1,1.6-1.4,2.8-3,2.8l0,0C68.7,127.5,68.6,127.5,68.6,127.5z M86.6,122.8c-0.5-1.6,0.3-3.3,1.9-3.8l0,0
			c1.6-0.5,3.3,0.3,3.8,1.9l0,0c0.5,1.6-0.3,3.3-1.9,3.8l0,0l0,0l0,0c-0.3,0.1-0.7,0.2-1,0.2l0,0C88.2,124.8,87,124,86.6,122.8z
			 M47.3,121.7c-1.5-0.8-2.1-2.5-1.3-4l0,0c0.8-1.5,2.6-2.1,4-1.3l0,0c1.5,0.8,2.1,2.6,1.3,4l0,0c-0.5,1.1-1.6,1.7-2.7,1.7l0,0
			C48.2,122,47.7,121.9,47.3,121.7z M105.2,113.1c-1.1-1.2-1-3.1,0.2-4.2l0,0c1.2-1.1,3.1-1,4.2,0.2l0,0c1.1,1.2,1,3.1-0.2,4.2l0,0
			l0,0l0,0c-0.6,0.5-1.3,0.8-2,0.8l0,0C106.6,114.1,105.8,113.8,105.2,113.1z M30,108c-1.1-1.3-0.9-3.2,0.4-4.2l0,0
			c1.3-1.1,3.2-0.9,4.2,0.4l0,0c1.1,1.3,0.9,3.2-0.4,4.2l0,0c-0.6,0.5-1.2,0.7-1.9,0.7l0,0C31.5,109.1,30.6,108.7,30,108z
			 M118.5,97.1c-1.5-0.7-2.2-2.5-1.5-4l0,0c0.7-1.5,2.5-2.2,4-1.5l0,0c1.5,0.7,2.2,2.5,1.5,4l0,0c-0.5,1.1-1.6,1.7-2.7,1.7l0,0
			C119.3,97.4,118.9,97.3,118.5,97.1z M19.4,88.6c-0.5-1.6,0.4-3.3,2-3.8l0,0c1.6-0.5,3.3,0.4,3.8,2l0,0c0.5,1.6-0.4,3.3-2,3.8l0,0
			c-0.3,0.1-0.6,0.1-0.9,0.1l0,0C21,90.8,19.8,89.9,19.4,88.6z M124.5,77.1c-1.7-0.1-3-1.5-2.9-3.1l0,0c0.1-1.7,1.4-3,3.1-2.9l0,0
			c1.7,0.1,3,1.4,2.9,3.1l0,0l0,0l0,0C127.6,75.8,126.2,77.1,124.5,77.1L124.5,77.1C124.6,77.1,124.5,77.1,124.5,77.1z M19.9,70
			c-1.6-0.2-2.9-1.6-2.7-3.3l0,0l0,0l0,0c0.2-1.6,1.6-2.9,3.3-2.7l0,0c1.6,0.2,2.9,1.6,2.7,3.3l0,0c-0.2,1.5-1.5,2.7-3,2.7l0,0
			C20.1,70,20,70,19.9,70z M118.4,54.6c-0.6-1.5,0.2-3.3,1.7-3.9l0,0c1.5-0.6,3.3,0.2,3.9,1.7l0,0c0.6,1.6-0.2,3.3-1.7,3.9l0,0
			c-0.4,0.1-0.7,0.2-1.1,0.2l0,0C120,56.5,118.8,55.8,118.4,54.6z M25,49.7c-1.4-0.8-2-2.6-1.2-4.1l0,0c0.8-1.4,2.6-2,4.1-1.2l0,0
			c1.5,0.8,2,2.6,1.2,4.1l0,0c-0.5,1-1.6,1.6-2.6,1.6l0,0C25.9,50.1,25.4,50,25,49.7z M107.8,38c-1.1-1.2-1.1-3.1,0.1-4.2l0,0
			c1.2-1.1,3.1-1.1,4.2,0.1l0,0l0,0l0,0c1.2,1.2,1.1,3.1-0.1,4.2l0,0c-0.6,0.6-1.3,0.9-2.1,0.9l0,0C109.1,38.9,108.4,38.6,107.8,38z
			 M37.6,33.1c-1-1.3-0.8-3.2,0.5-4.2l0,0c1.3-1,3.2-0.8,4.2,0.5l0,0c1,1.3,0.8,3.2-0.5,4.2l0,0c-0.6,0.4-1.2,0.6-1.9,0.6l0,0
			C39,34.2,38.2,33.8,37.6,33.1z M91.6,26.9c-1.5-0.6-2.2-2.4-1.6-3.9l0,0c0.7-1.5,2.4-2.2,3.9-1.6l0,0c1.5,0.6,2.2,2.4,1.6,3.9l0,0
			c-0.5,1.1-1.6,1.8-2.8,1.8l0,0C92.3,27.1,92,27,91.6,26.9z M55.6,22.6c-0.4-1.6,0.5-3.2,2.1-3.7l0,0c0,0,0,0,0,0l0,0
			c1.6-0.4,3.2,0.5,3.7,2.1l0,0c0.4,1.6-0.5,3.2-2.1,3.7l0,0c-0.3,0.1-0.5,0.1-0.8,0.1l0,0C57.2,24.8,56,23.9,55.6,22.6z M69.3,20
			c0-1.7,1.3-3,3-3l0,0c1.7,0,3,1.3,3,3l0,0c0,1.7-1.3,3-3,3l0,0C70.6,23,69.3,21.6,69.3,20z"/>
		
			<linearGradient id="SVGID_4_" gradientUnits="userSpaceOnUse" x1="71.9361" y1="35.8604" x2="71.9361" y2="112.04" gradientTransform="matrix(1 0 0 -1 0 146)">
			<stop  offset="0" style="stop-color:#00FF79;stop-opacity:0.1"/>
			<stop  offset="0.17" style="stop-color:#01FD7B;stop-opacity:0.11"/>
			<stop  offset="0.32" style="stop-color:#04F681;stop-opacity:0.15"/>
			<stop  offset="0.45" style="stop-color:#0AEA8B;stop-opacity:0.22"/>
			<stop  offset="0.57" style="stop-color:#12D999;stop-opacity:0.31"/>
			<stop  offset="0.69" style="stop-color:#1CC3AB;stop-opacity:0.43"/>
			<stop  offset="0.81" style="stop-color:#29A8C2;stop-opacity:0.58"/>
			<stop  offset="0.92" style="stop-color:#3888DC;stop-opacity:0.75"/>
			<stop  offset="1" style="stop-color:#446EF2;stop-opacity:0.9"/>
		</linearGradient>
		<path class="st3" d="M75.4,107.6c-0.3-1.6,0.8-3.2,2.5-3.5l0,0c1.6-0.3,3.2,0.8,3.5,2.4l0,0c0.3,1.6-0.8,3.2-2.4,3.5l0,0l0,0l0,0
			c-0.2,0-0.3,0-0.5,0l0,0C76.9,110.1,75.7,109.1,75.4,107.6z M56.6,107.3L56.6,107.3L56.6,107.3c-1.5-0.7-2.2-2.5-1.5-4l0,0
			c0.7-1.5,2.5-2.2,4-1.5l0,0c1.5,0.7,2.2,2.5,1.5,4l0,0c-0.5,1.1-1.6,1.8-2.7,1.8l0,0C57.4,107.6,57,107.5,56.6,107.3z M94.7,99.9
			c-1.1-1.2-1.1-3.1,0.1-4.2l0,0c1.2-1.2,3.1-1.1,4.2,0.1l0,0c1.1,1.2,1.1,3.1-0.1,4.2l0,0c-0.6,0.6-1.3,0.8-2.1,0.8l0,0
			C96,100.8,95.2,100.5,94.7,99.9z M39.7,92.5c-0.9-1.4-0.5-3.2,1-4.1l0,0c1.4-0.9,3.2-0.4,4.1,1l0,0c0.9,1.4,0.5,3.3-1,4.1l0,0
			c-0.5,0.3-1,0.5-1.6,0.5l0,0C41.3,94,40.3,93.5,39.7,92.5z M106.3,82.6c-1.6-0.3-2.7-1.9-2.3-3.6l0,0c0.3-1.6,1.9-2.7,3.6-2.3l0,0
			c1.6,0.3,2.7,1.9,2.3,3.5l0,0c0,0,0,0,0,0l0,0c-0.3,1.4-1.5,2.4-2.9,2.4l0,0C106.7,82.7,106.5,82.7,106.3,82.6z M36.9,74
			c-1.6-0.1-2.9-1.5-2.9-3.1l0,0c0.1-1.7,1.5-2.9,3.1-2.9l0,0c1.7,0.1,3,1.5,2.9,3.1l0,0c-0.1,1.6-1.4,2.9-3,2.9l0,0
			C36.9,74,36.9,74,36.9,74z M102.3,60.2c-0.6-1.5,0.1-3.3,1.7-3.9l0,0c1.5-0.6,3.3,0.1,3.9,1.7l0,0c0.6,1.5-0.1,3.3-1.7,3.9l0,0
			c-0.4,0.2-0.8,0.2-1.1,0.2l0,0C103.9,62.1,102.8,61.4,102.3,60.2z M42,53.8c-1.3-1-1.6-2.9-0.6-4.2l0,0c1-1.3,2.9-1.6,4.2-0.6l0,0
			c1.3,1,1.6,2.9,0.6,4.2l0,0c-0.6,0.8-1.5,1.2-2.4,1.2l0,0C43.2,54.4,42.5,54.2,42,53.8z M90.4,45.5c-1.4-0.9-1.7-2.8-0.8-4.2l0,0
			c0.9-1.4,2.8-1.7,4.2-0.8l0,0c1.4,0.9,1.7,2.8,0.8,4.2l0,0C94,45.5,93,46,92.1,46l0,0C91.5,46,90.9,45.8,90.4,45.5z M57.5,40
			c-0.6-1.6,0.2-3.3,1.8-3.8l0,0l0,0l0,0c1.6-0.6,3.3,0.2,3.8,1.8l0,0c0.6,1.6-0.2,3.3-1.8,3.8l0,0C61,42,60.7,42,60.3,42l0,0
			C59.1,42,58,41.3,57.5,40z M69.3,37c0-1.7,1.3-3,3-3l0,0c1.7,0,3,1.3,3,3l0,0c0,1.7-1.3,3-3,3l0,0C70.6,40,69.3,38.6,69.3,37z"/>
		<path class="st4" d="M66.7,132.6c-0.9,0-1.8-0.5-2.3-1.3l-5-7.9c-2.2-0.2-4.3-0.5-6.4-1.1l-7.4,5.8c-0.9,0.7-2.1,0.8-3.1,0.2
			l-8.4-5.3c-1-0.6-1.5-1.8-1.2-2.9l2.1-9.1c-1.4-1.7-2.7-3.4-3.7-5.3l-9.3-1.1c-1.1-0.1-2.1-1-2.3-2.1l-2.2-9.7
			c-0.2-1.1,0.2-2.3,1.2-2.9l7.9-5c0.2-2.2,0.6-4.3,1.1-6.4L21.9,71c-0.7-0.9-0.8-2.1-0.2-3.1l5.3-8.3c0.6-1,1.8-1.4,2.9-1.2
			l9.1,2.1c1.7-1.4,3.4-2.7,5.3-3.7l1.1-9.3c0.1-1.1,1-2.1,2.1-2.3l9.6-2.2c1.1-0.2,2.3,0.2,2.9,1.2l5,7.9c2,0.2,4,0.5,5.9,1
			l-0.7,2.8c-1.8-0.5-3.6-0.8-5.5-0.9c-0.8-0.1-1.6-0.5-2.1-1.2l-5-7.9l-9.4,2.1l-1.1,9.3c-0.1,0.8-0.6,1.6-1.3,2
			c-1.8,1-3.4,2.2-5,3.5c-0.6,0.6-1.5,0.8-2.3,0.6l-9.2-2l-5.2,8.2l5.8,7.4c0.5,0.7,0.7,1.6,0.5,2.4c-0.5,2-0.8,4-1,6
			c-0.1,0.9-0.5,1.6-1.2,2.1l-7.9,5l2.1,9.4l9.3,1.1c0.8,0.1,1.6,0.6,2,1.3c1,1.8,2.2,3.4,3.5,5c0.6,0.6,0.8,1.5,0.6,2.3l-2,9.1
			l8.2,5.2l7.3-5.7c0.7-0.5,1.5-0.7,2.4-0.5c2,0.5,4,0.9,6,1c0.9,0.1,1.6,0.5,2.1,1.2l5,7.9l9.4-2.1l1.1-9.3c0.1-0.8,0.6-1.6,1.3-2
			c1.8-1,3.4-2.2,5-3.5c0.6-0.6,1.5-0.8,2.3-0.6l9.1,2.1l5.2-8.2l-5.8-7.4c-0.5-1-0.7-2.2-0.4-3.4l2.8,0.8c0,0.3,0,0.6,0.1,0.9
			l5.8,7.3c0.7,0.9,0.8,2.1,0.2,3.1l-5.3,8.4c-0.6,1-1.8,1.4-2.9,1.2l-9.2-2c-1.6,1.4-3.4,2.7-5.3,3.7L79,128
			c-0.1,1.1-1,2.1-2.1,2.3l-9.6,2.2C67.1,132.5,66.9,132.6,66.7,132.6z"/>
		<path class="st4" d="M102.6,76.6l-0.6-2.8l-9.3-1.1c-0.8-0.1-1.6-0.6-2-1.4c-1-1.8-2.2-3.4-3.5-5c-0.6-0.6-0.8-1.4-0.7-2.3
			l2.1-9.1L85.8,53l1.5-2.4l2.9,1.8c1,0.6,1.4,1.8,1.2,2.9l-2.1,9.1c1.4,1.6,2.7,3.4,3.8,5.3l9.3,1.1c1.1,0.1,2.1,1,2.3,2.1l0.7,2.9
			L102.6,76.6z"/>
		<path class="st4" d="M62.2,108.5c-0.8,0-1.6,0-2.4-0.1l0.3-2.9c0.9,0.1,1.8,0.1,2.7,0.1l0.1,2.9L62.2,108.5z M66,108.2l-0.5-2.8
			l0.7-0.1c0.6-0.2,1.3-0.3,1.9-0.5l0.9,2.7c-0.7,0.2-1.4,0.4-2.2,0.6L66,108.2z M56.8,107.8c-1-0.3-2-0.6-2.9-1l1.1-2.7
			c0.8,0.4,1.7,0.7,2.5,0.9L56.8,107.8z M71.8,106.2l-1.3-2.6c0.8-0.4,1.5-0.9,2.3-1.4l1.7,2.3C73.6,105.1,72.7,105.7,71.8,106.2z
			 M51.1,105.3c-0.9-0.5-1.7-1.2-2.5-1.8l1.9-2.2c0.7,0.6,1.4,1.1,2.1,1.6L51.1,105.3z M76.8,102.6l-2-2c0.6-0.6,1.2-1.3,1.8-2
			l2.3,1.7C78.2,101.1,77.5,101.8,76.8,102.6z M46.5,101.3c-0.7-0.8-1.3-1.6-1.8-2.5l2.4-1.5c0.5,0.7,1,1.5,1.6,2.1L46.5,101.3z
			 M80.5,97.6L78,96.3c0.4-0.8,0.7-1.6,1-2.4l2.7,1C81.4,95.8,80.9,96.7,80.5,97.6L80.5,97.6z M43.2,96.1c-0.4-0.9-0.7-1.9-1-2.9
			l2.8-0.8c0.2,0.9,0.5,1.7,0.9,2.5L43.2,96.1z M82.6,91.9l-2.8-0.6c0.2-0.9,0.3-1.8,0.3-2.6l2.9,0.2C82.9,89.8,82.8,90.9,82.6,91.9
			z M41.6,90.2c-0.1-0.8-0.1-1.7-0.2-2.5c0-0.2,0-0.4,0-0.6l2.9,0.1c0,0.2,0,0.3,0,0.5c0,0.7,0,1.4,0.1,2.1L41.6,90.2z M44.6,84.5
			L41.8,84c0.2-1,0.4-2,0.8-3l2.7,0.9C45,82.8,44.7,83.6,44.6,84.5L44.6,84.5z M46.3,79.5l-2.6-1.3c0.5-0.9,1-1.8,1.6-2.6l2.3,1.7
			C47.2,78,46.7,78.7,46.3,79.5L46.3,79.5z M49.4,75.2l-2.1-2c0.7-0.7,1.5-1.4,2.3-2l1.7,2.3C50.7,74,50,74.6,49.4,75.2L49.4,75.2z
			 M53.6,72l-1.4-2.5c0.9-0.5,1.8-0.9,2.8-1.3l1,2.7C55.2,71.2,54.4,71.6,53.6,72z M58.6,70.2L58,67.3c1-0.2,2-0.3,3-0.4l0.2,2.9
			C60.3,69.9,59.4,70,58.6,70.2L58.6,70.2z M63.8,69.9l0.3-2.9h0.1L63.8,69.9z"/>
		<path class="st5" d="M126.5,57.8l-4.7-0.8c-0.3,0-0.6-0.3-0.7-0.6c-0.5-1.5-1.1-3-1.8-4.4c-0.2-0.3-0.1-0.7,0.1-0.9l2.8-3.9
			c0.2-0.4,0.2-0.8-0.1-1.2L114,38c-0.3-0.3-0.8-0.3-1.2-0.1l-3.8,2.8c-0.3,0.2-0.7,0.2-0.9,0c-1.4-0.7-2.9-1.3-4.4-1.8
			c-0.3-0.1-0.6-0.4-0.6-0.7l-0.8-4.7c-0.1-0.4-0.5-0.8-0.9-0.8H90c-0.4,0-0.8,0.3-0.9,0.8l-0.8,4.7c0,0.3-0.3,0.6-0.6,0.7
			c-1.5,0.5-3,1.1-4.4,1.8c-0.3,0.2-0.7,0.2-0.9,0l-3.9-2.8c-0.4-0.2-0.8-0.2-1.2,0.1l-8,8.1c-0.3,0.3-0.4,0.8-0.1,1.2l2.8,3.9
			c0.2,0.3,0.2,0.6,0.1,0.9c-0.4,0.8-0.8,1.6-1.1,2.4l-0.1,0.2c-0.2,0.6-0.4,1.2-0.6,1.8c-0.1,0.3-0.4,0.6-0.7,0.6l-4.7,0.8
			c-0.4,0.1-0.8,0.4-0.8,0.9v11.4c0,0.4,0.3,0.8,0.8,0.9l4.7,0.8c0.3,0.1,0.6,0.3,0.7,0.6c0.5,1.5,1,3,1.8,4.4
			c0.2,0.3,0.1,0.7-0.1,0.9l-2.8,3.9c-0.3,0.4-0.2,0.9,0.1,1.2l8,8.1c0.3,0.3,0.8,0.3,1.2,0.1l3-2.2l0.3-0.2l0.5-0.3
			c0.3-0.2,0.6-0.2,0.9-0.1c1.4,0.7,2.9,1.3,4.4,1.8c0.3,0.1,0.6,0.4,0.6,0.7l0.8,4.7c0.1,0.5,0.6,0.8,1,0.7h11.4
			c0.4,0,0.8-0.3,0.9-0.8l0.8-4.7c0.1-0.3,0.3-0.6,0.6-0.7c1.5-0.5,2.9-1.1,4.3-1.8c0.3-0.2,0.7-0.1,0.9,0.1l3.9,2.8
			c0.4,0.2,0.8,0.2,1.2-0.1l8.1-8.1c0.3-0.3,0.3-0.8,0.1-1.2l-2.8-3.9c-0.2-0.3-0.2-0.6-0.1-0.9c0.7-1.4,1.3-2.9,1.8-4.4
			c0.1-0.3,0.4-0.6,0.7-0.6l4.7-0.8c0.4-0.1,0.8-0.4,0.8-0.9V58.7C127.3,58.3,127,57.9,126.5,57.8z M106.2,74.8
			c0,0.1-0.1,0.1-0.2,0.2c-0.6,0.5-1.3,0.9-1.9,1.3C88.9,85.4,73,68.5,84.4,53.4c0,0,0.1-0.1,0.2-0.2c0.7-0.5,1.4-1,2.1-1.4
			C101.8,42.9,117.5,59.8,106.2,74.8L106.2,74.8z"/>
	</g>
</g>
</svg>
