<svg xmlns="http://www.w3.org/2000/svg" viewBox="0 0 29 29"><defs><style>.cls-1{fill:#00ff79;}</style></defs><title>close-menu</title><g id="Layer_2" data-name="Layer 2"><g id="Layer_2-2" data-name="Layer 2"><path class="cls-1" d="M27.56,8.48a4.9,4.9,0,0,0,0-6.93l-.12-.12a4.9,4.9,0,0,0-6.93,0L15.15,6.81a.92.92,0,0,1-1.3,0L8.48,1.44a4.9,4.9,0,0,0-6.93,0l-.12.12a4.9,4.9,0,0,0,0,6.93l5.37,5.37a.92.92,0,0,1,0,1.3L1.44,20.52a4.9,4.9,0,0,0,0,6.93l.12.12a4.9,4.9,0,0,0,6.93,0l5.37-5.37a.92.92,0,0,1,1.3,0l5.37,5.37a4.9,4.9,0,0,0,6.93,0l.12-.12a4.9,4.9,0,0,0,0-6.93l-5.37-5.37a.92.92,0,0,1,0-1.3Z"/></g></g></svg>