<svg xmlns="http://www.w3.org/2000/svg" xmlns:xlink="http://www.w3.org/1999/xlink" viewBox="0 0 370.66 35.91"><defs><style>.cls-1{fill:#fff;}.cls-2{fill:url(#linear-gradient);}.cls-3{fill:url(#linear-gradient-2);}.cls-4{fill:url(#linear-gradient-3);}.cls-5{fill:url(#linear-gradient-4);}.cls-6{fill:url(#linear-gradient-5);}.cls-7{fill:url(#linear-gradient-6);}.cls-8{fill:#00ff79;}.cls-9{fill:url(#linear-gradient-7);}.cls-10{fill:url(#linear-gradient-8);}.cls-11{fill:#446ef2;}</style><linearGradient id="linear-gradient" x1="116.82" y1="29.9" x2="116.82" y2="19.9" gradientUnits="userSpaceOnUse"><stop offset="0" stop-color="#0020a7"/><stop offset="1" stop-color="#fff"/></linearGradient><linearGradient id="linear-gradient-2" x1="153.14" y1="18.44" x2="153.14" y2="10.31" xlink:href="#linear-gradient"/><linearGradient id="linear-gradient-3" x1="199.15" y1="17.87" x2="205.85" y2="11.16" xlink:href="#linear-gradient"/><linearGradient id="linear-gradient-4" x1="278.51" y1="5.74" x2="278.51" y2="21.6" gradientUnits="userSpaceOnUse"><stop offset="0" stop-color="#0020a7"/><stop offset="0.08" stop-color="#1e3ab1"/><stop offset="0.28" stop-color="#6175c9"/><stop offset="0.46" stop-color="#9aa6dc"/><stop offset="0.63" stop-color="#c5cdeb"/><stop offset="0.78" stop-color="#e5e8f6"/><stop offset="0.91" stop-color="#f8f9fd"/><stop offset="1" stop-color="#fff"/></linearGradient><linearGradient id="linear-gradient-5" x1="317.99" y1="29.9" x2="317.99" y2="19.9" xlink:href="#linear-gradient"/><linearGradient id="linear-gradient-6" x1="84.42" y1="18.02" x2="82.13" y2="29.96" xlink:href="#linear-gradient"/><linearGradient id="linear-gradient-7" x1="20.19" y1="17.71" x2="32.63" y2="17.71" gradientUnits="userSpaceOnUse"><stop offset="0" stop-color="#98ffbc"/><stop offset="0.1" stop-color="#8df8ae"/><stop offset="0.28" stop-color="#71e788"/><stop offset="0.52" stop-color="#45cc4c" stop-opacity="0.99"/><stop offset="0.72" stop-color="#1eb419" stop-opacity="0.99"/><stop offset="1" stop-color="#17b212"/></linearGradient><linearGradient id="linear-gradient-8" x1="1.53" y1="12.99" x2="13.73" y2="12.99" gradientUnits="userSpaceOnUse"><stop offset="0" stop-color="#98ffbc"/><stop offset="0.11" stop-color="#96feb9"/><stop offset="0.2" stop-color="#8ef9af"/><stop offset="0.28" stop-color="#81f19e"/><stop offset="0.36" stop-color="#70e686"/><stop offset="0.43" stop-color="#59d867" stop-opacity="0.99"/><stop offset="0.51" stop-color="#3dc742" stop-opacity="0.99"/><stop offset="0.57" stop-color="#1eb419" stop-opacity="0.99"/><stop offset="1" stop-color="#17b212"/></linearGradient></defs><title>geprotec-logotipo</title><g id="Layer_2" data-name="Layer 2"><g id="Layer_1-2" data-name="Layer 1"><path class="cls-1" d="M255,18a14.36,14.36,0,0,1-4,10.32A15.11,15.11,0,0,1,239.43,33a15.36,15.36,0,0,1-11.62-4.76A14.62,14.62,0,0,1,223.89,18a14.46,14.46,0,0,1,3.92-10.26,16.5,16.5,0,0,1,23.22,0A14.49,14.49,0,0,1,255,18Zm-4.76,0a10.11,10.11,0,0,0-3-7.76,10.51,10.51,0,0,0-7.72-2.92A10.39,10.39,0,0,0,228.61,18a10.37,10.37,0,0,0,3.09,7.73,10.55,10.55,0,0,0,7.73,3,10.39,10.39,0,0,0,7.72-2.92A10.12,10.12,0,0,0,250.2,18Z"/><path class="cls-1" d="M294.4,3.4V7.68H262.74V3.4Zm-13.51,8.16V32h-4.68V11.56Z"/><path class="cls-1" d="M205,20.89a8.09,8.09,0,0,0,5-2.71,8,8,0,0,0,2.1-5.82,8.74,8.74,0,0,0-2.54-6.57,9.84,9.84,0,0,0-7-2.4H183.76V31.92h4.68V7.6h12.93c3.86,0,5.84,1.59,5.84,4.73,0,2.65-1.46,4.09-4.38,4.38h0c-.28,0-6.36,0-6.36,0l10.43,15.2h5.37Z"/><path class="cls-1" d="M367.39,23.23l3.27,2.66c-3.35,4.57-7.62,6.82-12.87,6.82a15.41,15.41,0,0,1-10.72-3.8,14.29,14.29,0,0,1-4.84-11.1A14.29,14.29,0,0,1,347.07,6.7a15.41,15.41,0,0,1,10.72-3.79c5.25,0,9.52,2.24,12.87,6.82l-3.27,2.65c-3-4.33-6.05-5.23-9.92-5.23a11.16,11.16,0,0,0-7.58,2.66,10.07,10.07,0,0,0-3.55,8,10.06,10.06,0,0,0,3.55,8,11.16,11.16,0,0,0,7.58,2.66C361.34,28.46,364.37,27.56,367.39,23.23Z"/><polygon class="cls-2" points="104.46 3.4 129.14 3.4 129.14 7.64 109.14 7.64 109.14 14.99 129.18 14.99 129.18 19.24 109.14 19.24 109.14 28.18 104.46 28.18 104.46 3.4"/><path class="cls-1" d="M104.46,27.7h24.68V32H104.46Z"/><path class="cls-3" d="M145.67,7.68h16.54c3.83,0,4-4.24,1.12-4.24L141,3.4V17.11h4.72Z"/><path class="cls-1" d="M172.73,12.34c0,2.86-.84,5-2.62,6.53s-4.31,2.25-7.66,2.25H145.67V32H141V16.87h21.58c3.63,0,5.44-1.51,5.44-4.45,0-3.14-1.93-4.74-5.76-4.74l1.12-4.24a9.63,9.63,0,0,1,6.9,2.41A8.54,8.54,0,0,1,172.73,12.34Z"/><path class="cls-4" d="M205,20.89a8.09,8.09,0,0,0,5-2.71,8,8,0,0,0,2.1-5.82,8.74,8.74,0,0,0-2.54-6.57,9.84,9.84,0,0,0-7-2.4L201.37,7.6c3.86,0,5.84,1.59,5.84,4.73,0,2.65-1.46,4.09-4.38,4.38H202Z"/><rect class="cls-5" x="276.13" y="6.9" width="4.76" height="25.09"/><rect class="cls-1" x="262.74" y="3.4" width="31.66" height="4.29"/><polygon class="cls-6" points="305.63 3.4 330.31 3.4 330.31 7.64 310.31 7.64 310.31 14.99 330.35 14.99 330.35 19.24 310.31 19.24 310.31 28.18 305.63 28.18 305.63 3.4"/><path class="cls-1" d="M305.63,27.7h24.68V32H305.63Z"/><path class="cls-1" d="M66.82,6.7A15.41,15.41,0,0,1,77.55,2.91c5.24,0,9.52,2.24,12.86,6.82l-3.26,2.65c-3-4.33-6.05-5.23-9.92-5.23a11.17,11.17,0,0,0-7.59,2.66,10.07,10.07,0,0,0-3.55,8,10.12,10.12,0,0,0,3.07,7.68,11,11,0,0,0,8.07,3c5.24,0,8.67-2.41,10.24-7.31H76.38V17h16v.4c0,4.58-1.37,8.3-4.15,11.11a14.81,14.81,0,0,1-11,4.25A15.25,15.25,0,0,1,66.74,29,14.27,14.27,0,0,1,62,17.85,14.31,14.31,0,0,1,66.82,6.7Z"/><path class="cls-7" d="M77.23,28.51c5.24,0,8.67-2.41,10.24-7.31H76.38V17h16v.4c0,4.58-1.37,8.3-4.15,11.11a14.81,14.81,0,0,1-11,4.25C73,32.8,73.88,28.51,77.23,28.51Z"/><path class="cls-1" d="M76.38,21.16H92.05a20,20,0,0,0,.34-3.72V17h-16Z"/><circle class="cls-8" cx="357.41" cy="17.79" r="4.21"/><path class="cls-8" d="M32.63,17.89a62.09,62.09,0,0,1-4.42,13c-2.8,5.39-4.83,6.74-8.42,2.33S14,17.84,14,17.84Z"/><path class="cls-9" d="M26.91,8.13c-4-.74-6.47,9.21-6.72,9.71,0,0,2.49,8.71,6,9.45s6.22-9,6.47-9.45C32.63,17.84,30.41,8.79,26.91,8.13Z"/><path class="cls-8" d="M20.19,18.09S24.2.91,29,0c2.88-.51,4.86,3.62,5.84,5.66,2.11,4.4,2.95,9.16,4.55,13.72.77,2.17,2.53,8,5.64,7.87,4.23-.25,6.22-9.45,6.22-9.45s-4.23,18.91-9.33,18c0,0-4,1.16-8.14-13.3S27.66,8.63,26.41,8.63C22.93,8.63,20.19,18.09,20.19,18.09Z"/><path class="cls-10" d="M1.53,18.09s1.75-8,5.48-10c1.84-1,3.35,1.42,4.08,2.75a31.48,31.48,0,0,1,2.64,7,6.48,6.48,0,0,0-.63-1.19,11.14,11.14,0,0,0-.74-1.23c-.76-1.11-2.11-2.79-3.61-2.72-1.82.09-3.24,1.27-4.54,2.43A21.72,21.72,0,0,0,2.4,16.91,3.16,3.16,0,0,0,1.53,18.09Z"/><path class="cls-8" d="M1.53,18.09S5.54.91,10.38,0c2.88-.51,4.86,3.62,5.84,5.66,2.11,4.4,3,9.16,4.55,13.72.77,2.17,2.53,8,5.64,7.87,4.23-.25,6.22-9.45,6.22-9.45s-4.23,18.91-9.33,18c0,0-4,1.16-8.14-13.3S9,8.63,7.75,8.63C4.27,8.63,1.53,18.09,1.53,18.09Z"/><path class="cls-11" d="M44.73,20.18l-.47.14L41.45,25.1l.57-.3Z"/><path class="cls-11" d="M51.13,17.85l-.13.22.29-.29Z"/><path class="cls-11" d="M41.53,21l-.45.09L37.8,26.71l.5-.2Z"/><path class="cls-11" d="M49.87,18.36l-.51.2-1.27,2.15c.27-.22.53-.44.78-.67Z"/><path class="cls-11" d="M40,21.32l-.43.06L36.1,27.29l.48-.15Z"/><path class="cls-11" d="M48.12,19l-.5.18-2,3.37.67-.48Z"/><path class="cls-11" d="M46.4,19.64l-.48.16L43.45,24l.62-.37Z"/><path class="cls-11" d="M43.11,20.64l-.46.12L39.58,26l.53-.24Z"/><path class="cls-11" d="M38.54,21.5l-.41,0-3.58,6.09.44-.07Z"/><path class="cls-11" d="M34.68,21.16,34.37,21l-3,5.13a3,3,0,0,0,.18.36Z"/><path class="cls-11" d="M33.4,20.36l-2.31,3.93c0,.23,0,.44,0,.66l2.56-4.36Z"/><path class="cls-11" d="M32.88,19.61a3,3,0,0,1-.14-.42l-1,1.63c-.13.4-.25.83-.36,1.28Z"/><path class="cls-11" d="M37.16,21.55h-.39L33.21,27.6l.37,0Z"/><path class="cls-11" d="M35.86,21.45l-.35-.06-3.4,5.77a2.82,2.82,0,0,0,.29.18Z"/><path class="cls-11" d="M19.94,17.93l-.17.3.54-.45Z"/><path class="cls-11" d="M13.59,20.19l-.47.13-2.8,4.76.58-.32Z"/><path class="cls-11" d="M12,20.62l-.45.11L8.41,26,9,25.78Z"/><path class="cls-11" d="M10.43,21,10,21,6.62,26.78l.5-.19Z"/><path class="cls-11" d="M15.24,19.68l-.48.15-2.37,4,.63-.41Z"/><path class="cls-11" d="M1.45,17.81v0l0,.08Z"/><path class="cls-11" d="M16.94,19.09l-.49.18-1.8,3.06.69-.51Z"/><path class="cls-11" d="M8.93,21.21l-.42.05L4.93,27.34l.48-.14Z"/><path class="cls-11" d="M18.68,18.44l-.5.19-1.05,1.79.75-.62Z"/><path class="cls-11" d="M3.73,20.85l-.31-.14L.32,26a3,3,0,0,0,.18.36Z"/><path class="cls-11" d="M2.71,20.27a2.75,2.75,0,0,1-.26-.22L0,24.22a5.65,5.65,0,0,0,0,.59Z"/><path class="cls-11" d="M7.5,21.34H7.1L3.42,27.61l.42-.05Z"/><path class="cls-11" d="M1.89,19.36A3.91,3.91,0,0,1,1.71,19L.34,21.34c-.07.32-.14.65-.19,1Z"/><path class="cls-11" d="M4.88,21.19l-.35-.08L1.06,27l.28.19Z"/><path class="cls-11" d="M6.15,21.34l-.38,0L2.12,27.52l.35.07Z"/></g></g></svg>