<svg xmlns="http://www.w3.org/2000/svg" xmlns:xlink="http://www.w3.org/1999/xlink" viewBox="0 0 141.55 141.66"><defs><style>.cls-1{fill:#00ff79;}.cls-1,.cls-5{fill-rule:evenodd;}.cls-2{fill:url(#linear-gradient);}.cls-3{fill:url(#linear-gradient-2);}.cls-4{fill:url(#linear-gradient-3);}.cls-5{fill:url(#linear-gradient-4);}.cls-6{fill:#fff;}</style><linearGradient id="linear-gradient" x1="70.77" y1="141.66" x2="70.77" gradientUnits="userSpaceOnUse"><stop offset="0" stop-color="#00ff79" stop-opacity="0.1"/><stop offset="0.17" stop-color="#01fd7b" stop-opacity="0.11"/><stop offset="0.32" stop-color="#04f681" stop-opacity="0.15"/><stop offset="0.45" stop-color="#0aea8b" stop-opacity="0.22"/><stop offset="0.57" stop-color="#12d999" stop-opacity="0.31"/><stop offset="0.69" stop-color="#1cc3ab" stop-opacity="0.43"/><stop offset="0.81" stop-color="#29a8c2" stop-opacity="0.58"/><stop offset="0.92" stop-color="#3888dc" stop-opacity="0.75"/><stop offset="1" stop-color="#446ef2" stop-opacity="0.9"/></linearGradient><linearGradient id="linear-gradient-2" x1="70.39" y1="125.03" x2="70.39" y2="17.01" xlink:href="#linear-gradient"/><linearGradient id="linear-gradient-3" x1="71.22" y1="108.4" x2="71.22" y2="33.39" xlink:href="#linear-gradient"/><linearGradient id="linear-gradient-4" x1="69.7" y1="52.4" x2="69.7" y2="132.4" gradientUnits="userSpaceOnUse"><stop offset="0.11" stop-color="#00ff79" stop-opacity="0"/><stop offset="0.19" stop-color="#00ff79" stop-opacity="0.04"/><stop offset="0.34" stop-color="#00ff79" stop-opacity="0.15"/><stop offset="0.52" stop-color="#00ff79" stop-opacity="0.33"/><stop offset="0.74" stop-color="#00ff79" stop-opacity="0.58"/><stop offset="0.99" stop-color="#00ff79" stop-opacity="0.89"/><stop offset="1" stop-color="#00ff79" stop-opacity="0.9"/></linearGradient></defs><title>instalaciones</title><g id="Layer_2" data-name="Layer 2"><g id="Layer_1-2" data-name="Layer 1"><path class="cls-1" d="M70.25,62.58a6.82,6.82,0,0,1,0,13.63,6.82,6.82,0,1,1,0-13.63Z"/><path class="cls-2" d="M67.85,138.66a3,3,0,0,1,3-3h0a3,3,0,0,1,3,3h0a3,3,0,0,1-3,3h0A3,3,0,0,1,67.85,138.66Zm6.65,0a3,3,0,0,1,2.7-3.27h0a3,3,0,0,1,3.27,2.69h0a3,3,0,0,1-2.69,3.28h-.29A3,3,0,0,1,74.5,138.63Zm-25.22-.31a3,3,0,0,1-2-3.77h0a3,3,0,0,1,3.77-2h0a3,3,0,0,1,1.95,3.77h0a3,3,0,0,1-2.86,2.09h0A3.19,3.19,0,0,1,49.28,138.32Zm45.7-4a3,3,0,0,1,1.57-3.94h0a3,3,0,0,1,3.94,1.56h0a3,3,0,0,1-1.56,3.95h0a3.12,3.12,0,0,1-1.19.24h0A3,3,0,0,1,95,134.32Zm-65.23-5.79a3,3,0,0,1-.7-4.18h0a3,3,0,0,1,4.19-.7h0a3,3,0,0,1,.7,4.18h0a3,3,0,0,1-2.45,1.26h0A3,3,0,0,1,29.75,128.53ZM113.16,124a3,3,0,0,1,.29-4.23h0a3,3,0,0,1,4.24.29h0a3,3,0,0,1-.3,4.23h0a3,3,0,0,1-2,.74h0A3,3,0,0,1,113.16,124Zm-99-10.67h0a3,3,0,0,1,.6-4.2h0a3,3,0,0,1,4.2.6h0a3,3,0,0,1-.6,4.2h0a3,3,0,0,1-1.8.6h0A3,3,0,0,1,14.13,113.28Zm113.21-4.73a3,3,0,0,1-1-4.12h0a3,3,0,0,1,4.12-1h0a3,3,0,0,1,1,4.12h0A3,3,0,0,1,128.9,109h0A3,3,0,0,1,127.34,108.55ZM3.87,94a3,3,0,0,1,1.85-3.81h0A3,3,0,0,1,9.54,92h0a3,3,0,0,1-1.85,3.82h0a3.09,3.09,0,0,1-1,.16h0A3,3,0,0,1,3.87,94Zm132.3-4.43A3,3,0,0,1,134,86h0a3,3,0,0,1,3.61-2.22h0a3,3,0,0,1,2.22,3.62h0a3,3,0,0,1-2.91,2.3h0A2.79,2.79,0,0,1,136.17,89.57ZM0,72.52a3,3,0,0,1,2.93-3.07h0A3,3,0,0,1,6,72.37H6a3,3,0,0,1-2.93,3.08H3A3,3,0,0,1,0,72.52ZM135.56,66a3,3,0,0,1,2.77-3.21h0a3,3,0,0,1,3.21,2.77h0a3,3,0,0,1-2.77,3.21h-.22A3,3,0,0,1,135.56,66ZM4.86,54.59a3,3,0,0,1-2-3.72h0a3,3,0,0,1,3.72-2h0a3,3,0,0,1,2,3.72h0A3,3,0,0,1,5.7,54.71h0A3,3,0,0,1,4.86,54.59Zm126.2-8a3,3,0,0,1,1.66-3.9h0a3,3,0,0,1,3.9,1.66h0a3,3,0,0,1-1.66,3.9h0a3,3,0,0,1-1.12.22h0A3,3,0,0,1,131.06,46.56ZM12.92,35.28a3,3,0,0,1-.8-4.17h0a3,3,0,0,1,4.17-.8h0a3,3,0,0,1,.8,4.16h0a3,3,0,0,1-2.49,1.32h0A3.06,3.06,0,0,1,12.92,35.28Zm107.9-5.88a3,3,0,0,1,.39-4.22h0a3,3,0,0,1,4.22.39h0a3,3,0,0,1-.39,4.22h0a3,3,0,0,1-1.91.7h0A3,3,0,0,1,120.82,29.4ZM26.49,19.33A3,3,0,0,1,27,15.12h0a3,3,0,0,1,4.22.5h0a3,3,0,0,1-.5,4.21h0a3,3,0,0,1-1.86.64h0A3,3,0,0,1,26.49,19.33Zm79.36-3.18a3,3,0,0,1-.91-4.15h0a3,3,0,0,1,4.15-.9h0a3,3,0,0,1,.9,4.14h0a3,3,0,0,1-2.53,1.38h0A3,3,0,0,1,105.85,16.15Zm-61.6-7.9A3,3,0,0,1,46,4.39h0a3,3,0,0,1,3.87,1.76h0A3,3,0,0,1,48.11,10h0a3,3,0,0,1-1,.19h0A3,3,0,0,1,44.25,8.25Zm43.31-.17a3,3,0,0,1-2.13-3.67h0A3,3,0,0,1,89.1,2.28h0A3,3,0,0,1,91.23,6h0a3,3,0,0,1-2.89,2.22h0A3,3,0,0,1,87.56,8.08Zm-23-4.94A3,3,0,0,1,67.39,0h0a3,3,0,0,1,3.14,2.85h0A3,3,0,0,1,67.68,6h-.14A3,3,0,0,1,64.54,3.14Z"/><path class="cls-3" d="M67.86,122a3,3,0,0,1,3-3h0a3,3,0,0,1,3,3h0a3,3,0,0,1-3,3h0A3,3,0,0,1,67.86,122ZM75,122a3,3,0,0,1,2.56-3.38h0a3,3,0,0,1,3.38,2.56h0a3,3,0,0,1-2.56,3.38h0a3,3,0,0,1-.42,0h0A3,3,0,0,1,75,122Zm-25.72-1.41h0a3,3,0,0,1-1.56-3.94h0a3,3,0,0,1,4-1.56h0a3,3,0,0,1,1.55,4h0a3,3,0,0,1-2.75,1.8h0A3,3,0,0,1,49.24,120.55ZM95,116.1A3,3,0,0,1,96,112h0a3,3,0,0,1,4.13,1h0a3,3,0,0,1-1,4.12h0a3,3,0,0,1-1.56.44h0A3,3,0,0,1,95,116.1Zm-63.78-8.28h0a3,3,0,0,1,.14-4.24h0a3,3,0,0,1,4.24.14h0a3,3,0,0,1-.14,4.24h0a3,3,0,0,1-2.05.81h0A3,3,0,0,1,31.22,107.82ZM111,102.73a3,3,0,0,1-.72-4.19h0a3,3,0,0,1,4.18-.73h0a3,3,0,0,1,.72,4.18h0a3,3,0,0,1-2.45,1.27h0A3,3,0,0,1,111,102.73ZM19.74,89h0a3,3,0,0,1,1.82-3.83h0A3,3,0,0,1,25.39,87h0a3,3,0,0,1-1.82,3.83h0a3,3,0,0,1-1,.18h0A3,3,0,0,1,19.74,89Zm100.71-4.89a3,3,0,0,1-2.34-3.54h0a3,3,0,0,1,3.54-2.34h0A3,3,0,0,1,124,81.74h0a3,3,0,0,1-2.94,2.4h0A3.05,3.05,0,0,1,120.45,84.08ZM19.53,70.31a3,3,0,0,1-2.8-3.2h0a3,3,0,0,1,3.2-2.79h0a3,3,0,0,1,2.79,3.2h0a3,3,0,0,1-3,2.79h-.2Zm98.56-9.41a3,3,0,0,1,2.32-3.54h0A3,3,0,0,1,124,59.68h0a3,3,0,0,1-2.33,3.55h0a3.15,3.15,0,0,1-.61.06h0A3,3,0,0,1,118.09,60.9ZM24,49.9a3,3,0,0,1-1.28-4h0a3,3,0,0,1,4-1.28h0a3,3,0,0,1,1.29,4h0a3,3,0,0,1-2.67,1.62h0A3,3,0,0,1,24,49.9Zm86.29-7a3,3,0,0,1,.71-4.18h0a3,3,0,0,1,4.19.71h0a3,3,0,0,1-.72,4.18h0a2.93,2.93,0,0,1-1.73.56h0A3,3,0,0,1,110.24,42.92ZM36.16,33a3,3,0,0,1,.43-4.22h0a3,3,0,0,1,4.22.43h0a3,3,0,0,1-.43,4.22h0a2.93,2.93,0,0,1-1.89.68h0A3,3,0,0,1,36.16,33Zm59.72-3.42a3,3,0,0,1-1-4.12h0a3,3,0,0,1,4.12-1h0a3,3,0,0,1,1,4.13h0A3,3,0,0,1,97.43,30h0A2.92,2.92,0,0,1,95.88,29.53ZM54.1,22.25a3,3,0,0,1,2.08-3.7h0a3,3,0,0,1,3.69,2.08h0a3,3,0,0,1-2.07,3.7h0a2.89,2.89,0,0,1-.82.11h0A3,3,0,0,1,54.1,22.25ZM77.38,23a3,3,0,0,1-2.57-3.37h0A3,3,0,0,1,78.19,17h0a3,3,0,0,1,2.57,3.38h0a3,3,0,0,1-3,2.6h0A2.83,2.83,0,0,1,77.38,23Z"/><path class="cls-4" d="M67.86,105.4a3,3,0,0,1,3-3h0a3,3,0,0,1,3,3h0a3,3,0,0,1-3,3h0A3,3,0,0,1,67.86,105.4Zm7.56-.17a3,3,0,0,1,2.29-3.57h0a3,3,0,0,1,3.57,2.28h0A3,3,0,0,1,79,107.51h0a3,3,0,0,1-.65.08h0A3,3,0,0,1,75.42,105.23Zm-26-3.54h0a3,3,0,0,1-.75-4.17h0a3,3,0,0,1,4.18-.75h0a3,3,0,0,1,.75,4.18h0a3,3,0,0,1-2.47,1.29h0A3,3,0,0,1,49.41,101.69Zm44.83-5.21a3,3,0,0,1-.17-4.24h0a3,3,0,0,1,4.24-.16h0a3,3,0,0,1,.17,4.23h0a3,3,0,0,1-2.21,1h0A3,3,0,0,1,94.24,96.48ZM35.62,84h0a3,3,0,0,1,1.75-3.86h0a3,3,0,0,1,3.87,1.76h0a3,3,0,0,1-1.76,3.86h0a3,3,0,0,1-1,.19h0A3,3,0,0,1,35.62,84Zm69.1-5.39a3,3,0,0,1-2.56-3.38h0a3,3,0,0,1,3.39-2.56h0A3,3,0,0,1,108.11,76h0a3,3,0,0,1-3,2.59h0A3,3,0,0,1,104.72,78.57ZM36.56,65.18a3,3,0,0,1-2.17-3.65h0A3,3,0,0,1,38,59.36h0A3,3,0,0,1,40.21,63h0a3,3,0,0,1-2.91,2.27h0A3.18,3.18,0,0,1,36.56,65.18Zm62.53-8.63a3,3,0,0,1,1.32-4h0a3,3,0,0,1,4,1.32h0a3,3,0,0,1-1.33,4h0a3,3,0,0,1-1.35.32h0A3,3,0,0,1,99.09,56.55ZM45.88,46.64a3,3,0,0,1,.3-4.24h0a3,3,0,0,1,4.23.3h0a3,3,0,0,1-.29,4.23h0a3,3,0,0,1-2,.74h0A3,3,0,0,1,45.88,46.64ZM85.94,43a3,3,0,0,1-1.21-4.07h0a3,3,0,0,1,4.07-1.2h0A3,3,0,0,1,90,41.8h0a3,3,0,0,1-2.64,1.56h0A2.92,2.92,0,0,1,85.94,43ZM64.1,36.7a3,3,0,0,1,2.66-3.3h0a3,3,0,0,1,3.31,2.66h0a3,3,0,0,1-2.66,3.3h0l-.33,0h0A3,3,0,0,1,64.1,36.7Z"/><path class="cls-1" d="M34.62,90.46h.31c0-15.49,8.37-27.57,21.38-32.83V85.81H61V51.74a4.24,4.24,0,0,1,4.34-4.34h9.6a4.24,4.24,0,0,1,4.34,4.34c0,11.15.31,22.61.31,34.07h4.33V57.63c13,5.26,21.38,17.34,21.38,32.83h.31a4.42,4.42,0,0,1,4.33,4.34V96H30.29V94.8A4.42,4.42,0,0,1,34.62,90.46Z"/><path class="cls-5" d="M99.48,114.27l3,2.13,7.1,8.45a10.89,10.89,0,0,0,.9-8.27V52.4h-82v65.54h.88v7.44l11.77,5.8,11.77-5.8H82.64a17.08,17.08,0,0,0,21.37,5L95.34,123a1.73,1.73,0,0,1,0-2.37Z"/><path class="cls-6" d="M96.18,134.41a15.33,15.33,0,0,1-11.12-4.79,13.73,13.73,0,0,1-2.6-3l-.33-.46h-29l-12,7-12.77-7.39V111.26l12.77-7.4,12,7h29l.33-.46a13.68,13.68,0,0,1,2.6-3,15.35,15.35,0,0,1,11-4.67h0a15.92,15.92,0,0,1,14.39,22.24l-.61,1.36-9.08-9.44a1,1,0,0,0-1,0l-3.65,3.34a1.35,1.35,0,0,0-.07,1.44l9.54,9.53-1,.68A15.05,15.05,0,0,1,96.18,134.41ZM52.63,124.15H83.14l.3.4.65.9a11.91,11.91,0,0,0,2.24,2.62l.13.11a13.23,13.23,0,0,0,15.94,2.66l-7.77-7.77a3.27,3.27,0,0,1-.13-4l.16-.18,3.72-3.41a2.87,2.87,0,0,1,3.86,0l7,7.25a13.12,13.12,0,0,0-3.42-13.86l0,0a13.41,13.41,0,0,0-19.3,0l-.13.12a11.62,11.62,0,0,0-2.24,2.61l-.65.9-.3.4H52.63l-11.5-6.66-10.77,6.24v12.17l10.77,6.23ZM41.13,124a5.79,5.79,0,0,1-5.65-5.64A5.51,5.51,0,0,1,41.13,113a5.22,5.22,0,0,1,5.33,5.34A5.5,5.5,0,0,1,41.13,124Zm0-9a3.51,3.51,0,0,0-3.65,3.34A3.74,3.74,0,0,0,41.13,122a3.49,3.49,0,0,0,3.33-3.64A3.22,3.22,0,0,0,41.13,115Z"/></g></g></svg>