<svg xmlns="http://www.w3.org/2000/svg" viewBox="0 0 16.91 22.54"><defs><style>.cls-1{fill:#00ff79;}</style></defs><title>location</title><g id="Layer_2" data-name="Layer 2"><g id="Layer_1-2" data-name="Layer 1"><path class="cls-1" d="M8.45,0A8.46,8.46,0,0,0,0,8.45c0,7,7.52,13.59,7.84,13.87a1,1,0,0,0,1.23,0c.32-.28,7.84-6.86,7.84-13.87A8.46,8.46,0,0,0,8.45,0Zm0,20.32C6.71,18.64,1.88,13.53,1.88,8.45A6.58,6.58,0,0,1,15,8.45C15,13.52,10.19,18.64,8.45,20.32Zm0-15.62a3.76,3.76,0,1,0,3.76,3.75A3.75,3.75,0,0,0,8.45,4.7Zm0,5.63a1.88,1.88,0,1,1,1.88-1.88A1.88,1.88,0,0,1,8.45,10.33Z"/></g></g></svg>