<svg xmlns="http://www.w3.org/2000/svg" viewBox="0 0 13.54 56.05"><defs><style>.cls-1{fill:#00ff79;}</style></defs><title>menu-mobile</title><g id="Layer_2" data-name="Layer 2"><g id="Layer_2-2" data-name="Layer 2"><g id="a"><path class="cls-1" d="M6.79,56.05a6.53,6.53,0,0,0,4.79-2,6.8,6.8,0,0,0,0-9.55,6.53,6.53,0,0,0-4.79-2,6.54,6.54,0,0,0-4.8,2,6.72,6.72,0,0,0,0,9.55,6.54,6.54,0,0,0,4.8,2m0-34.79a6.59,6.59,0,0,0-4.8,2A6.76,6.76,0,0,0,2,32.8a6.55,6.55,0,0,0,4.8,2,6.54,6.54,0,0,0,4.79-2,6.83,6.83,0,0,0,0-9.58,6.58,6.58,0,0,0-4.79-2m0-7.72a6.69,6.69,0,0,0,6.75-6.75,6.59,6.59,0,0,0-2-4.8A6.53,6.53,0,0,0,6.79,0,6.54,6.54,0,0,0,2,2a6.54,6.54,0,0,0-2,4.8,6.53,6.53,0,0,0,2,4.79A6.59,6.59,0,0,0,6.79,13.54Z"/></g></g></g></svg>