<svg xmlns="http://www.w3.org/2000/svg" viewBox="0 0 34.86 82.81"><defs><style>.cls-1{fill:#00ff79;}</style></defs><title>scroll</title><g id="Layer_2" data-name="Layer 2"><g id="Layer_1-2" data-name="Layer 1"><path class="cls-1" d="M17.43,15.71A17.48,17.48,0,0,0,0,33.14V49.7a17.43,17.43,0,0,0,34.86,0V33.14A17.48,17.48,0,0,0,17.43,15.71Zm12.46,34A12.46,12.46,0,0,1,5,49.7V33.14a12.46,12.46,0,0,1,24.92,0Z"/><path class="cls-1" d="M17.43,26.08A2.43,2.43,0,0,0,15,28.52v6.71a2.44,2.44,0,0,0,2.44,2.44,2.49,2.49,0,0,0,2.44-2.44V28.52A2.44,2.44,0,0,0,17.43,26.08Z"/><path class="cls-1" d="M21.7,72.61l-4.27,4.27-4.27-4.27A2.47,2.47,0,1,0,9.67,76.1l6,6a2.33,2.33,0,0,0,1.74.7,2.56,2.56,0,0,0,1.74-.7l6-6a2.47,2.47,0,1,0-3.49-3.49Z"/><path class="cls-1" d="M13.16,10.22,17.43,6l4.27,4.27a2.36,2.36,0,0,0,1.74.7,2.65,2.65,0,0,0,1.75-.7,2.49,2.49,0,0,0,0-3.49l-6-6a2.46,2.46,0,0,0-3.48,0l-6,6a2.47,2.47,0,1,0,3.49,3.49Z"/></g></g></svg>