<?xml version="1.0" encoding="utf-8"?>
<!-- Generator: Adobe Illustrator 23.0.2, SVG Export Plug-In . SVG Version: 6.00 Build 0)  -->
<svg version="1.1" id="Layer_1" xmlns="http://www.w3.org/2000/svg" xmlns:xlink="http://www.w3.org/1999/xlink" x="0px" y="0px"
	 viewBox="0 0 141.8 141.8" style="enable-background:new 0 0 141.8 141.8;" xml:space="preserve">
<style type="text/css">
	.st0{fill:url(#SVGID_1_);}
	.st1{fill:url(#SVGID_2_);}
	.st2{fill:url(#SVGID_3_);}
	.st3{fill:#00FF79;}
	.st4{fill:#FFFFFF;}
	.st5{fill:url(#SVGID_4_);}
</style>
<title>seguridad</title>
<linearGradient id="SVGID_1_" gradientUnits="userSpaceOnUse" x1="70.9615" y1="2.3203" x2="70.9615" y2="143.6745" gradientTransform="matrix(1 0 0 -1 0 144)">
	<stop  offset="0" style="stop-color:#00FF79;stop-opacity:0.1"/>
	<stop  offset="0.17" style="stop-color:#01FD7B;stop-opacity:0.11"/>
	<stop  offset="0.32" style="stop-color:#04F681;stop-opacity:0.15"/>
	<stop  offset="0.45" style="stop-color:#0AEA8B;stop-opacity:0.22"/>
	<stop  offset="0.57" style="stop-color:#12D999;stop-opacity:0.31"/>
	<stop  offset="0.69" style="stop-color:#1CC3AB;stop-opacity:0.43"/>
	<stop  offset="0.81" style="stop-color:#29A8C2;stop-opacity:0.58"/>
	<stop  offset="0.92" style="stop-color:#3888DC;stop-opacity:0.75"/>
	<stop  offset="1" style="stop-color:#446EF2;stop-opacity:0.9"/>
</linearGradient>
<path class="st0" d="M71.2,138.8c-0.1-1.6,1.2-3.1,2.8-3.1l0,0c1.7-0.1,3.1,1.2,3.1,2.9l0,0c0.1,1.7-1.2,3.1-2.9,3.1l0,0
	c0,0,0,0,0,0l0,0c0,0-0.1,0-0.1,0l0,0C72.6,141.7,71.3,140.4,71.2,138.8z M52.6,139.4c-1.6-0.4-2.6-2.1-2.1-3.7l0,0
	c0.4-1.6,2.1-2.5,3.7-2.1l0,0c1.6,0.4,2.5,2.1,2.1,3.7l0,0c-0.4,1.3-1.6,2.2-2.9,2.2l0,0C53.2,139.5,52.9,139.5,52.6,139.4z
	 M91.9,135.5c-0.6-1.5,0.2-3.3,1.8-3.9l0,0c1.5-0.6,3.3,0.2,3.9,1.8l0,0c0.6,1.6-0.2,3.3-1.8,3.9l0,0c-0.3,0.1-0.7,0.2-1.1,0.2l0,0
	C93.5,137.5,92.3,136.7,91.9,135.5z M32.7,130.6c-1.4-0.9-1.8-2.8-0.9-4.1l0,0c0.9-1.4,2.8-1.8,4.1-0.9l0,0c1.4,0.9,1.8,2.8,0.9,4.1
	l0,0c-0.6,0.9-1.5,1.4-2.5,1.4l0,0C33.7,131.1,33.2,130.9,32.7,130.6z M110.5,126c-1-1.3-0.8-3.2,0.5-4.2l0,0c1.3-1,3.2-0.8,4.2,0.5
	l0,0c1,1.3,0.8,3.2-0.5,4.2l0,0c-0.5,0.4-1.2,0.6-1.8,0.6l0,0C112,127.2,111.1,126.8,110.5,126z M16.3,116.1
	c-1.1-1.3-0.9-3.2,0.4-4.2l0,0c1.3-1.1,3.2-0.9,4.2,0.4l0,0c1.1,1.3,0.9,3.2-0.4,4.2l0,0c-0.6,0.5-1.2,0.7-1.9,0.7l0,0
	C17.8,117.2,16.9,116.8,16.3,116.1z M125.5,111.3c-1.4-0.9-1.7-2.8-0.8-4.2l0,0c0.9-1.4,2.8-1.7,4.2-0.8l0,0
	c1.4,0.9,1.7,2.8,0.8,4.2l0,0l0,0l0,0c-0.6,0.9-1.5,1.3-2.5,1.3l0,0C126.6,111.9,126,111.7,125.5,111.3z M5.1,97.4
	c-0.6-1.5,0.1-3.3,1.7-3.9l0,0c1.5-0.6,3.3,0.1,3.9,1.7l0,0c0.6,1.5-0.1,3.3-1.7,3.9l0,0c-0.4,0.1-0.8,0.2-1.1,0.2l0,0
	C6.7,99.2,5.6,98.5,5.1,97.4z M135.2,92.8c-1.6-0.5-2.5-2.1-2-3.7h0c0.5-1.6,2.1-2.5,3.7-2l0,0c1.6,0.5,2.5,2.1,2,3.7l0,0l0,0l0,0
	c-0.4,1.3-1.6,2.2-2.9,2.2l0,0C135.8,93,135.5,92.9,135.2,92.8z M0.2,76.1C0.1,74.4,1.3,73,3,72.9l0,0C4.6,72.8,6,74,6.2,75.7l0,0
	c0.1,1.6-1.1,3.1-2.8,3.2l0,0c-0.1,0-0.1,0-0.2,0l0,0C1.6,78.9,0.3,77.7,0.2,76.1z M135.7,69.3c0-1.7,1.3-3,2.9-3.1l0,0
	c1.6,0,3,1.3,3.1,2.9l0,0c0,1.7-1.3,3-2.9,3.1l0,0c0,0,0,0-0.1,0l0,0C137.1,72.2,135.8,70.9,135.7,69.3z M4.2,57.9
	c-1.6-0.4-2.6-2-2.2-3.6l0,0l0,0l0,0c0.4-1.6,2-2.6,3.6-2.2l0,0c1.6,0.4,2.6,2,2.2,3.6l0,0C7.4,57.1,6.2,58,4.9,58l0,0
	C4.6,58,4.4,58,4.2,57.9z M132.2,49.6c-0.6-1.6,0.3-3.3,1.8-3.8l0,0c1.6-0.5,3.3,0.3,3.8,1.9l0,0c0.5,1.6-0.3,3.3-1.9,3.8l0,0
	c-0.3,0.1-0.7,0.2-1,0.2l0,0C133.8,51.6,132.6,50.9,132.2,49.6z M11.3,38.3c-1.4-0.9-1.9-2.7-1-4.1l0,0c0.9-1.4,2.7-1.9,4.1-1l0,0
	c1.4,0.9,1.9,2.7,1,4.1l0,0c-0.6,0.9-1.6,1.4-2.6,1.4l0,0C12.3,38.7,11.8,38.6,11.3,38.3z M122.8,32c-1-1.3-0.7-3.2,0.6-4.2l0,0
	c1.3-1,3.2-0.7,4.2,0.6l0,0c1,1.3,0.7,3.2-0.6,4.2l0,0c-0.5,0.4-1.2,0.6-1.8,0.6l0,0C124.3,33.2,123.4,32.8,122.8,32z M24,21.7
	c-1.1-1.2-1-3.1,0.3-4.2l0,0c1.2-1.1,3.1-1,4.2,0.3l0,0c1.1,1.2,1,3.1-0.3,4.2l0,0c-0.6,0.5-1.3,0.7-2,0.7l0,0
	C25.4,22.7,24.6,22.3,24,21.7z M108.5,18L108.5,18c-1.4-1-1.7-2.8-0.7-4.2l0,0c1-1.3,2.8-1.7,4.2-0.7l0,0l0,0l0,0
	c1.4,1,1.7,2.8,0.7,4.2l0,0c-0.6,0.8-1.5,1.3-2.4,1.3l0,0C109.6,18.6,109,18.4,108.5,18z M41.2,9.7c-0.7-1.5,0-3.3,1.6-3.9l0,0
	c1.5-0.7,3.3,0,3.9,1.6l0,0c0.7,1.5,0,3.3-1.6,4l0,0c-0.4,0.2-0.8,0.2-1.2,0.2l0,0C42.8,11.5,41.7,10.9,41.2,9.7z M90.6,9.1
	c-1.6-0.5-2.5-2.2-1.9-3.8l0,0c0.5-1.6,2.2-2.5,3.8-1.9l0,0c1.6,0.5,2.5,2.2,1.9,3.8l0,0c-0.4,1.3-1.6,2.1-2.9,2.1l0,0
	C91.2,9.2,90.9,9.2,90.6,9.1z M61.2,3.6c-0.2-1.6,1-3.1,2.7-3.3l0,0l0,0l0,0c1.6-0.2,3.1,1,3.3,2.7l0,0c0.2,1.6-1,3.1-2.7,3.3l0,0
	c-0.1,0-0.2,0-0.3,0l0,0C62.7,6.3,61.4,5.2,61.2,3.6z"/>
<linearGradient id="SVGID_2_" gradientUnits="userSpaceOnUse" x1="71.3478" y1="19.3506" x2="71.3478" y2="126.8794" gradientTransform="matrix(1 0 0 -1 0 144)">
	<stop  offset="0" style="stop-color:#00FF79;stop-opacity:0.1"/>
	<stop  offset="0.17" style="stop-color:#01FD7B;stop-opacity:0.11"/>
	<stop  offset="0.32" style="stop-color:#04F681;stop-opacity:0.15"/>
	<stop  offset="0.45" style="stop-color:#0AEA8B;stop-opacity:0.22"/>
	<stop  offset="0.57" style="stop-color:#12D999;stop-opacity:0.31"/>
	<stop  offset="0.69" style="stop-color:#1CC3AB;stop-opacity:0.43"/>
	<stop  offset="0.81" style="stop-color:#29A8C2;stop-opacity:0.58"/>
	<stop  offset="0.92" style="stop-color:#3888DC;stop-opacity:0.75"/>
	<stop  offset="1" style="stop-color:#446EF2;stop-opacity:0.9"/>
</linearGradient>
<path class="st1" d="M63.5,124.6L63.5,124.6L63.5,124.6c-1.6-0.2-2.8-1.7-2.6-3.4l0,0c0.2-1.6,1.7-2.8,3.4-2.6l0,0
	c1.6,0.2,2.8,1.7,2.6,3.4l0,0c-0.2,1.5-1.5,2.6-3,2.6l0,0C63.8,124.6,63.7,124.6,63.5,124.6z M81.8,121c-0.5-1.6,0.5-3.2,2.1-3.7
	l0,0c1.6-0.4,3.2,0.5,3.7,2.1l0,0c0.4,1.6-0.5,3.2-2.1,3.7l0,0c-0.3,0.1-0.5,0.1-0.8,0.1l0,0C83.4,123.2,82.2,122.4,81.8,121z
	 M42.7,117.2L42.7,117.2L42.7,117.2c-1.4-0.9-1.9-2.7-1-4.1l0,0c0.9-1.4,2.7-1.9,4.1-1l0,0c1.4,0.9,1.9,2.7,1,4.1l0,0
	c-0.6,0.9-1.5,1.4-2.6,1.4l0,0C43.8,117.7,43.2,117.5,42.7,117.2z M100.9,112.5c-1-1.3-0.9-3.2,0.4-4.2l0,0c1.3-1,3.2-0.9,4.2,0.4
	l0,0c1,1.3,0.9,3.2-0.4,4.2l0,0c-0.5,0.5-1.2,0.7-1.9,0.7l0,0C102.4,113.6,101.5,113.2,100.9,112.5z M26.6,102.2
	c-1-1.4-0.6-3.2,0.7-4.2l0,0c1.3-1,3.2-0.6,4.2,0.7l0,0c1,1.4,0.6,3.2-0.7,4.2l0,0c-0.5,0.4-1.1,0.5-1.7,0.5l0,0
	C28.1,103.5,27.2,103,26.6,102.2z M115,97.1c-1.5-0.8-2-2.6-1.3-4l0,0c0.8-1.5,2.6-2,4.1-1.3l0,0c1.5,0.8,2,2.6,1.3,4l0,0
	c-0.5,1-1.6,1.6-2.7,1.6l0,0C115.9,97.4,115.5,97.3,115,97.1z M17.8,82C17.8,82,17.8,82,17.8,82L17.8,82c-0.3-1.6,0.7-3.2,2.3-3.5
	l0,0c1.6-0.3,3.2,0.7,3.6,2.3l0,0c0.3,1.6-0.7,3.2-2.3,3.5l0,0c-0.2,0-0.4,0.1-0.6,0.1l0,0C19.3,84.4,18.1,83.4,17.8,82z
	 M121.8,77.3c-1.7-0.1-2.9-1.5-2.8-3.2l0,0c0.1-1.7,1.5-2.9,3.2-2.8l0,0c1.6,0.1,2.9,1.6,2.8,3.2l0,0l0,0l0,0
	c-0.1,1.6-1.4,2.8-3,2.8l0,0C121.9,77.4,121.9,77.4,121.8,77.3z M20.1,63.4c-1.6-0.3-2.7-1.9-2.3-3.5l0,0c0.3-1.6,1.9-2.7,3.5-2.3
	l0,0c1.6,0.3,2.7,1.9,2.3,3.5l0,0c-0.3,1.4-1.5,2.4-2.9,2.4l0,0C20.5,63.5,20.3,63.5,20.1,63.4z M116.3,54.7
	c-0.5-1.6,0.3-3.3,1.8-3.8l0,0c1.6-0.6,3.3,0.3,3.8,1.8l0,0c0.5,1.6-0.3,3.3-1.8,3.8l0,0c-0.3,0.1-0.7,0.2-1,0.2l0,0
	C117.9,56.7,116.8,55.9,116.3,54.7z M27.2,43.8c-1.4-0.9-1.7-2.8-0.7-4.2l0,0c1-1.4,2.8-1.7,4.2-0.7l0,0c1.4,1,1.7,2.8,0.7,4.2l0,0
	c-0.6,0.8-1.5,1.3-2.4,1.3l0,0C28.4,44.4,27.8,44.2,27.2,43.8z M106.1,37.9c-1.1-1.2-1.1-3.1,0.1-4.2l0,0c1.2-1.1,3.1-1.1,4.2,0.1
	l0,0l0,0l0,0c1.1,1.2,1.1,3.1-0.1,4.2l0,0c-0.6,0.5-1.3,0.8-2.1,0.8l0,0C107.5,38.9,106.7,38.6,106.1,37.9z M41.6,28.7
	c-0.9-1.4-0.4-3.3,1-4.1l0,0c1.4-0.9,3.3-0.4,4.1,1l0,0c0.9,1.4,0.4,3.3-1,4.1l0,0c-0.5,0.3-1,0.4-1.6,0.4l0,0
	C43.2,30.1,42.2,29.6,41.6,28.7z M90.1,26.6c-1.5-0.7-2.2-2.4-1.6-3.9l0,0c0.7-1.5,2.4-2.2,4-1.6l0,0c1.5,0.7,2.2,2.4,1.5,3.9l0,0
	c-0.5,1.1-1.6,1.8-2.8,1.8l0,0C90.9,26.9,90.5,26.8,90.1,26.6z M60.9,20.5c-0.2-1.6,0.9-3.1,2.6-3.4l0,0c1.6-0.2,3.2,0.9,3.4,2.6
	l0,0c0.2,1.6-0.9,3.2-2.6,3.4l0,0c-0.1,0-0.3,0-0.4,0l0,0C62.3,23.1,61.1,22,60.9,20.5z"/>
<linearGradient id="SVGID_3_" gradientUnits="userSpaceOnUse" x1="70.5169" y1="35.71" x2="70.5169" y2="109.9189" gradientTransform="matrix(1 0 0 -1 0 144)">
	<stop  offset="0" style="stop-color:#00FF79;stop-opacity:0.1"/>
	<stop  offset="0.17" style="stop-color:#01FD7B;stop-opacity:0.11"/>
	<stop  offset="0.32" style="stop-color:#04F681;stop-opacity:0.15"/>
	<stop  offset="0.45" style="stop-color:#0AEA8B;stop-opacity:0.22"/>
	<stop  offset="0.57" style="stop-color:#12D999;stop-opacity:0.31"/>
	<stop  offset="0.69" style="stop-color:#1CC3AB;stop-opacity:0.43"/>
	<stop  offset="0.81" style="stop-color:#29A8C2;stop-opacity:0.58"/>
	<stop  offset="0.92" style="stop-color:#3888DC;stop-opacity:0.75"/>
	<stop  offset="1" style="stop-color:#446EF2;stop-opacity:0.9"/>
</linearGradient>
<path class="st2" d="M71.7,105.6c-0.2-1.6,1-3.1,2.7-3.3l0,0c1.7-0.2,3.1,1,3.3,2.7l0,0c0.2,1.6-1,3.1-2.7,3.3l0,0l0,0l0,0
	c-0.1,0-0.2,0-0.3,0l0,0C73.1,108.3,71.8,107.1,71.7,105.6z M52.9,103.9C52.9,103.9,52.9,103.9,52.9,103.9L52.9,103.9
	c-1.5-0.8-2-2.6-1.2-4.1l0,0c0.8-1.5,2.6-2,4.1-1.2v0c1.5,0.8,2,2.6,1.2,4.1l0,0c-0.6,1-1.6,1.6-2.6,1.6l0,0
	C53.9,104.3,53.4,104.2,52.9,103.9z M91.3,99c-1.1-1.2-1-3.1,0.3-4.2l0,0c1.2-1.1,3.2-1,4.2,0.3l0,0c1.1,1.2,1,3.1-0.3,4.2l0,0l0,0
	l0,0c-0.6,0.5-1.3,0.7-2,0.7l0,0C92.8,100,91.9,99.6,91.3,99z M37.3,87.8L37.3,87.8L37.3,87.8c-0.8-1.5-0.2-3.3,1.3-4l0,0
	c1.5-0.8,3.3-0.2,4,1.3l0,0c0.8,1.5,0.2,3.3-1.3,4l0,0c-0.4,0.2-0.9,0.3-1.4,0.3l0,0C38.9,89.5,37.8,88.8,37.3,87.8z M103.7,82.3
	c-1.6-0.4-2.6-2-2.2-3.6l0,0c0.4-1.6,2-2.6,3.7-2.2l0,0c1.6,0.4,2.6,2,2.2,3.6l0,0c-0.3,1.4-1.6,2.3-2.9,2.3l0,0
	C104.2,82.4,103.9,82.4,103.7,82.3z M36.2,69c-1.6-0.2-2.8-1.7-2.6-3.4l0,0l0,0l0,0c0.2-1.6,1.8-2.8,3.4-2.6l0,0
	c1.6,0.2,2.8,1.7,2.5,3.4l0,0c-0.2,1.5-1.5,2.6-3,2.6l0,0C36.5,69.1,36.3,69,36.2,69z M100.5,59.8c-0.6-1.6,0.2-3.3,1.8-3.9l0,0
	c1.5-0.6,3.3,0.2,3.9,1.8l0,0c0.6,1.5-0.2,3.3-1.8,3.9l0,0c-0.3,0.1-0.7,0.2-1,0.2l0,0C102.1,61.8,101,61,100.5,59.8z M43.4,49.6
	c-1.2-1.1-1.3-3-0.2-4.2l0,0c0,0,0,0,0,0l0,0c1.1-1.2,3-1.3,4.2-0.2l0,0c1.2,1.1,1.3,3,0.2,4.2l0,0c-0.6,0.6-1.4,1-2.2,1l0,0
	C44.7,50.4,44,50.1,43.4,49.6z M88.9,44.9c-1.4-0.9-1.7-2.8-0.8-4.2l0,0c1-1.4,2.8-1.7,4.2-0.8l0,0c1.4,0.9,1.7,2.8,0.8,4.2l0,0
	c-0.6,0.8-1.5,1.3-2.5,1.3l0,0C90,45.4,89.4,45.3,88.9,44.9z M60.5,37.7c-0.4-1.6,0.7-3.2,2.3-3.6l0,0l0,0l0,0
	c1.6-0.4,3.2,0.7,3.6,2.3l0,0c0.4,1.6-0.7,3.2-2.3,3.6l0,0c-0.2,0.1-0.4,0.1-0.7,0.1l0,0C62,40.1,60.8,39.1,60.5,37.7z"/>
<path class="st3" d="M111.4,94.3v39.8c0,1.7-1.3,3-3,3h-75c-1.7,0-3-1.3-3-3V94.3c0-1.7,1.3-3,3-3h11.4c0.1,0.2,0.2,0.4,0.3,0.6
	c0.3,0.4,0.5,0.9,0.8,1.3c2.5,3.8,9.2,12.4,19.9,16.5l3.9,1.2c0.8,0.3,1.7,0.3,2.6,0l3.9-1.2c10.7-4.1,17.3-12.7,19.8-16.5
	c0.3-0.4,0.6-0.9,0.8-1.3c0.1-0.2,0.2-0.4,0.3-0.6h11.1C110,91.3,111.4,92.6,111.4,94.3C111.4,94.3,111.4,94.3,111.4,94.3z"/>
<path class="st4" d="M43.6,92.3c-7.2-12.5-7.1-29.8,0.2-45.1l2.3-4.8l5.3,1.1c5.4,1.1,11,0,15.6-3.1l3.9-2.7l3.9,2.7
	c4.6,3.1,10.2,4.2,15.6,3.1l5.3-1.1l2.3,4.8c7.3,15.3,7.4,32.6,0.2,45.1l-2.2-1.2c6.8-11.8,6.7-28.2-0.3-42.8l-1.5-3.1l-3.4,0.7
	c-6,1.2-12.3,0-17.4-3.5l-2.5-1.7l-2.5,1.7C63.3,45.8,57,47.1,51,45.8l-3.4-0.7l-1.5,3.1c-7,14.6-7.1,31-0.3,42.8L43.6,92.3z"/>
<path class="st3" d="M74.6,75.1v8h-5.7v-8c-1.7-1.1-2.7-3-2.6-4.9c-0.1-3,2.3-5.5,5.3-5.6c3-0.1,5.5,2.3,5.6,5.3c0,0.2,0,0.3,0,0.5
	C77.2,72.2,76.2,74,74.6,75.1z"/>
<path class="st4" d="M96.6,92.9h-2.4v-2.5h2.4V92.9z M91.7,92.9h-2.4v-2.5h2.4V92.9z M86.8,92.9h-2.4v-2.5h2.4L86.8,92.9z
	 M81.9,92.9h-2.5v-2.5h2.5L81.9,92.9z M77,92.9h-2.4v-2.5H77L77,92.9z M72.1,92.9h-2.4v-2.5h2.4L72.1,92.9z M67.2,92.9h-2.4v-2.5
	h2.4L67.2,92.9z M62.3,92.9h-2.5v-2.5h2.5L62.3,92.9z M57.4,92.9h-2.4v-2.5h2.5L57.4,92.9z M52.5,92.9H50v-2.5h2.5L52.5,92.9z
	 M47.6,92.9h-2.4v-2.5h2.5L47.6,92.9z"/>
<linearGradient id="SVGID_4_" gradientUnits="userSpaceOnUse" x1="-2347.8801" y1="412.385" x2="-2243.4099" y2="412.385" gradientTransform="matrix(6.123234e-17 1 1 -6.123234e-17 -341.51 2380.49)">
	<stop  offset="0.11" style="stop-color:#00FF79;stop-opacity:0"/>
	<stop  offset="0.19" style="stop-color:#00FF79;stop-opacity:4.000000e-02"/>
	<stop  offset="0.34" style="stop-color:#00FF79;stop-opacity:0.15"/>
	<stop  offset="0.52" style="stop-color:#00FF79;stop-opacity:0.33"/>
	<stop  offset="0.74" style="stop-color:#00FF79;stop-opacity:0.58"/>
	<stop  offset="0.99" style="stop-color:#00FF79;stop-opacity:0.89"/>
	<stop  offset="1" style="stop-color:#00FF79;stop-opacity:0.9"/>
</linearGradient>
<path class="st5" d="M115,37.8v94.1c0,2.9-2.3,5.2-5.2,5.2H31.9c-2.9,0-5.2-2.3-5.2-5.2V37.8c0-2.9,2.3-5.2,5.2-5.2h77.9
	C112.7,32.6,115,34.9,115,37.8z"/>
</svg>
