<svg xmlns="http://www.w3.org/2000/svg" viewBox="0 0 181.71 39"><defs><style>.cls-1{fill:#00ff79;}.cls-2{fill:#fff;}.cls-3,.cls-4{fill:#002ade;}.cls-3{stroke:#002ade;stroke-miterlimit:10;stroke-width:2px;}</style></defs><title>telefono-boton</title><g id="Layer_2" data-name="Layer 2"><g id="Layer_1-2" data-name="Layer 1"><rect class="cls-1" width="181.71" height="39" rx="19.5"/><circle class="cls-2" cx="20.47" cy="19.74" r="14.74"/><g id="_8" data-name="8"><path class="cls-3" d="M23.25,29.74c-2.81,0-5.6-3.74-7.38-7.57-1-2.07-3.84-9-.21-11.22l.8-.52a1.28,1.28,0,0,1,1.08-.16,1.36,1.36,0,0,1,.83.71l1.34,2.88a1.26,1.26,0,0,1-.45,1.59l-1.33.94c0,.29.14,1.35,1.45,4.14s2,3.56,2.25,3.77l1.57-.42a1.27,1.27,0,0,1,1.51.69l1.35,2.87a1.33,1.33,0,0,1-.81,1.82l-.92.28A3.17,3.17,0,0,1,23.25,29.74ZM17.17,10.91a.61.61,0,0,0-.34.1l-.8.52c-2.5,1.54-1.4,6.36.47,10.35s4.85,8,7.61,7l.94-.28a.64.64,0,0,0,.38-.34.67.67,0,0,0,0-.52l-1.35-2.88a.56.56,0,0,0-.69-.31L21.53,25,21.42,25c-.15-.06-1-.57-2.67-4.16s-1.53-4.58-1.48-4.74l0-.1,1.57-1.11a.58.58,0,0,0,.21-.73l-1.34-2.88a.64.64,0,0,0-.39-.33Z"/></g><path class="cls-4" d="M45.8,25.13a1.11,1.11,0,0,1-.65-.41,1.26,1.26,0,0,1-.26-.77v-.51a.66.66,0,0,1,.28-.55.72.72,0,0,1,.62-.11,9,9,0,0,0,2.14.34q2.43,0,2.43-2a1.46,1.46,0,0,0-1.66-1.65,1.9,1.9,0,0,0-.66.11l-.4.16-.47.18a3.34,3.34,0,0,1-.4.12,1.86,1.86,0,0,1-.45.06H45.8a.86.86,0,0,1-.64-.28.88.88,0,0,1-.25-.67L45.14,14a1,1,0,0,1,.32-.67.94.94,0,0,1,.68-.28h5.48a1,1,0,0,1,1,.95v.38a.91.91,0,0,1-.28.66.92.92,0,0,1-.67.29H47.88c-.1,0-.15,0-.15.13l-.1,2.1s0,0,0,0h0a4.06,4.06,0,0,1,1.57-.33,3.9,3.9,0,0,1,2.86,1,3.73,3.73,0,0,1,1,2.8c0,2.86-1.69,4.28-5.07,4.28A11.51,11.51,0,0,1,45.8,25.13Z"/><path class="cls-4" d="M56.58,25.13a1.13,1.13,0,0,1-.66-.41,1.25,1.25,0,0,1-.25-.77v-.51a.63.63,0,0,1,.28-.55.7.7,0,0,1,.61-.11,9.11,9.11,0,0,0,2.14.34c1.63,0,2.44-.68,2.44-2a1.47,1.47,0,0,0-1.66-1.65,1.86,1.86,0,0,0-.66.11l-.41.16-.46.18-.4.12a1.88,1.88,0,0,1-.46.06h-.51a.88.88,0,0,1-.65-.28.92.92,0,0,1-.25-.67L55.92,14a1,1,0,0,1,.31-.67,1,1,0,0,1,.68-.28H62.4a.91.91,0,0,1,.66.29.88.88,0,0,1,.28.66v.38a.87.87,0,0,1-.28.66.91.91,0,0,1-.66.29H58.65c-.1,0-.15,0-.15.13l-.1,2.1a0,0,0,0,0,0,0h0A4.11,4.11,0,0,1,60,17.29a3.91,3.91,0,0,1,2.86,1,3.77,3.77,0,0,1,1,2.8c0,2.86-1.69,4.28-5.07,4.28A11.43,11.43,0,0,1,56.58,25.13Z"/><path class="cls-4" d="M67.09,21.45a.88.88,0,0,1-.66-.28.94.94,0,0,1-.27-.67v-.23a.93.93,0,0,1,.27-.66.88.88,0,0,1,.66-.28H71a.86.86,0,0,1,.65.28.94.94,0,0,1,.28.66v.23a1,1,0,0,1-.28.67.86.86,0,0,1-.65.28Z"/><path class="cls-4" d="M75.18,15.37a.92.92,0,0,1-.67-.29.91.91,0,0,1-.28-.66V14a1,1,0,0,1,1-.95h6.63a.87.87,0,0,1,.65.29.88.88,0,0,1,.28.66v.38a3.5,3.5,0,0,1-.47,1.74,45.33,45.33,0,0,0-3.64,8.14,1.3,1.3,0,0,1-.48.65,1.36,1.36,0,0,1-.77.25H76.26a.63.63,0,0,1-.55-.29.6.6,0,0,1-.07-.61A50.48,50.48,0,0,1,80,15.47s0-.05,0-.07,0,0,0,0Z"/><path class="cls-4" d="M86.22,25.13a1.1,1.1,0,0,1-.66-.41,1.25,1.25,0,0,1-.25-.77v-.51a.63.63,0,0,1,.28-.55.7.7,0,0,1,.61-.11,9.11,9.11,0,0,0,2.14.34c1.62,0,2.44-.68,2.44-2a1.47,1.47,0,0,0-1.66-1.65,1.82,1.82,0,0,0-.66.11l-.41.16-.46.18-.4.12a1.88,1.88,0,0,1-.46.06h-.51a.91.91,0,0,1-.9-.95L85.55,14a1,1,0,0,1,.32-.67,1,1,0,0,1,.68-.28H92a.91.91,0,0,1,.66.29A.88.88,0,0,1,93,14v.38a.87.87,0,0,1-.28.66.91.91,0,0,1-.66.29H88.29c-.1,0-.15,0-.15.13L88,17.6a0,0,0,0,0,0,0h0a4.11,4.11,0,0,1,1.58-.33,3.91,3.91,0,0,1,2.86,1,3.77,3.77,0,0,1,1,2.8c0,2.86-1.69,4.28-5.07,4.28A11.43,11.43,0,0,1,86.22,25.13Z"/><path class="cls-4" d="M103.55,24.42a7.14,7.14,0,0,1-7.08,0,3,3,0,0,1-1.27-2.54c0-1.2.77-2.16,2.29-2.87,0,0,0,0,0,0a0,0,0,0,0,0,0A3.28,3.28,0,0,1,95.57,16a2.66,2.66,0,0,1,1.17-2.23,6.58,6.58,0,0,1,6.54,0A2.66,2.66,0,0,1,104.45,16c0,1-.68,1.92-2,2.62,0,0,0,0,0,0s0,0,0,0a3.33,3.33,0,0,1,2.41,3.18A3,3,0,0,1,103.55,24.42Zm-4-4.51a3.41,3.41,0,0,0-1.29.82,1.51,1.51,0,0,0-.37,1,1.42,1.42,0,0,0,.58,1.17,2.29,2.29,0,0,0,1.49.47,2.26,2.26,0,0,0,1.48-.47,1.44,1.44,0,0,0,.58-1.17,1.37,1.37,0,0,0-.44-1,5.23,5.23,0,0,0-1.77-.82A.3.3,0,0,0,99.6,19.91Zm.41-5a1.94,1.94,0,0,0-1.28.39,1.24,1.24,0,0,0-.48,1,1.2,1.2,0,0,0,.39.9,3.61,3.61,0,0,0,1.35.7.42.42,0,0,0,.27,0c1-.4,1.54-.93,1.54-1.6a1.24,1.24,0,0,0-.48-1A2,2,0,0,0,100,14.9Z"/><path class="cls-4" d="M107.64,25.2a.92.92,0,0,1-.67-.29.87.87,0,0,1-.28-.66v-.38a1.83,1.83,0,0,1,.75-1.51A24.61,24.61,0,0,0,111.12,19a3.6,3.6,0,0,0,.91-2.24c0-1-.57-1.52-1.69-1.52a7.23,7.23,0,0,0-2.52.56.62.62,0,0,1-.6-.07.57.57,0,0,1-.28-.51v-.7a1.27,1.27,0,0,1,.25-.77,1.15,1.15,0,0,1,.66-.45,11.17,11.17,0,0,1,2.9-.4,4.55,4.55,0,0,1,3.09,1,3.33,3.33,0,0,1,1.09,2.65A4.79,4.79,0,0,1,114,19.3a21.82,21.82,0,0,1-3.59,3.58s0,0,0,0,0,0,0,0h3.63a1,1,0,0,1,.93.95v.38a.9.9,0,0,1-.27.66.91.91,0,0,1-.66.29Z"/><path class="cls-4" d="M118.28,21.45a.87.87,0,0,1-.66-.28.94.94,0,0,1-.27-.67v-.23a.93.93,0,0,1,.27-.66.87.87,0,0,1,.66-.28h3.88a.86.86,0,0,1,.65.28.93.93,0,0,1,.27.66v.23a.94.94,0,0,1-.27.67.86.86,0,0,1-.65.28Z"/><path class="cls-4" d="M126.5,25.2a.89.89,0,0,1-.66-.29.88.88,0,0,1-.29-.66v-.38a1.83,1.83,0,0,1,.75-1.51A24.31,24.31,0,0,0,130,19a3.64,3.64,0,0,0,.9-2.24c0-1-.56-1.52-1.69-1.52a7.33,7.33,0,0,0-2.52.56.62.62,0,0,1-.6-.07.59.59,0,0,1-.28-.51v-.7a1.33,1.33,0,0,1,.25-.77,1.21,1.21,0,0,1,.66-.45,11.25,11.25,0,0,1,2.91-.4,4.59,4.59,0,0,1,3.09,1,3.36,3.36,0,0,1,1.08,2.65,4.72,4.72,0,0,1-.92,2.77,21.82,21.82,0,0,1-3.59,3.58,0,0,0,0,0,0,0s0,0,0,0h3.63a.88.88,0,0,1,.66.29.91.91,0,0,1,.27.66v.38a.9.9,0,0,1-.27.66.88.88,0,0,1-.66.29Z"/><path class="cls-4" d="M137.39,18a.42.42,0,0,1-.49.05.45.45,0,0,1-.26-.43V16.36a1.73,1.73,0,0,1,.77-1.49l1.67-1.23a2.86,2.86,0,0,1,1.71-.55h1a1,1,0,0,1,.95.95V24.25a.91.91,0,0,1-.28.66.92.92,0,0,1-.67.29h-1a1,1,0,0,1-.95-.95V16.19h0Z"/><path class="cls-4" d="M151.23,25.36A4.35,4.35,0,0,1,147.78,24a6,6,0,0,1-1.22-4.1A8.17,8.17,0,0,1,148,14.67a4.86,4.86,0,0,1,4-1.74,9.91,9.91,0,0,1,1.69.13,1,1,0,0,1,.65.4,1.2,1.2,0,0,1,.26.75v.29a.63.63,0,0,1-.27.55.76.76,0,0,1-.62.12,7,7,0,0,0-1.61-.2,2.53,2.53,0,0,0-1.88.72,3.42,3.42,0,0,0-.89,2.08s0,0,0,0h0a3.92,3.92,0,0,1,2.47-.72,4.19,4.19,0,0,1,3,1,3.92,3.92,0,0,1,1.06,2.95,4.08,4.08,0,0,1-1.24,3.17A4.87,4.87,0,0,1,151.23,25.36Zm0-6.4a1.85,1.85,0,0,0-1.42.57,2.21,2.21,0,0,0-.53,1.57,2.35,2.35,0,0,0,.53,1.63,2.05,2.05,0,0,0,2.86,0,2.35,2.35,0,0,0,.52-1.65,2.26,2.26,0,0,0-.52-1.58A1.89,1.89,0,0,0,151.23,19Z"/><path class="cls-4" d="M157.71,22.88a.87.87,0,0,1-.65-.29.91.91,0,0,1-.27-.66v-.31a2.94,2.94,0,0,1,.54-1.71l4.3-6.05a1.71,1.71,0,0,1,1.47-.77h.83a.87.87,0,0,1,.65.29.88.88,0,0,1,.28.66v6.5c0,.09,0,.13.15.13h.66a.88.88,0,0,1,.66.28.92.92,0,0,1,.29.67v.31a1,1,0,0,1-1,.95H165c-.1,0-.15,0-.15.14v1.23a1,1,0,0,1-.93.95h-.83a1,1,0,0,1-.93-.95V23c0-.1,0-.14-.15-.14Zm1.56-2.24h0s0,0,0,0H162c.1,0,.15,0,.15-.13v-4s0,0,0,0,0,0,0,0Z"/></g></g></svg>