<svg xmlns="http://www.w3.org/2000/svg" xmlns:xlink="http://www.w3.org/1999/xlink" viewBox="0 0 142.5 142.5"><defs><style>.cls-1,.cls-2,.cls-3{fill:none;stroke-linecap:round;stroke-linejoin:round;stroke-width:6px;stroke-dasharray:0 21;}.cls-1{stroke:url(#linear-gradient);}.cls-2{stroke:url(#linear-gradient-2);}.cls-3{stroke:url(#linear-gradient-3);}.cls-4{fill:url(#linear-gradient-4);}.cls-5{fill:#00ff79;}.cls-6{fill:#fff;}</style><linearGradient id="linear-gradient" x1="71.25" y1="142.5" x2="71.25" gradientUnits="userSpaceOnUse"><stop offset="0" stop-color="#00ff79" stop-opacity="0"/><stop offset="0.19" stop-color="#01fc7b" stop-opacity="0.01"/><stop offset="0.34" stop-color="#05f483" stop-opacity="0.06"/><stop offset="0.49" stop-color="#0ce58f" stop-opacity="0.13"/><stop offset="0.62" stop-color="#16d0a0" stop-opacity="0.23"/><stop offset="0.75" stop-color="#22b6b6" stop-opacity="0.35"/><stop offset="0.88" stop-color="#3295d1" stop-opacity="0.51"/><stop offset="1" stop-color="#436ff1" stop-opacity="0.69"/><stop offset="1" stop-color="#446ef2" stop-opacity="0.7"/></linearGradient><linearGradient id="linear-gradient-2" y1="125.78" x2="71.25" y2="16.72" xlink:href="#linear-gradient"/><linearGradient id="linear-gradient-3" y1="109.05" x2="71.25" y2="33.45" xlink:href="#linear-gradient"/><linearGradient id="linear-gradient-4" x1="71.25" y1="37.27" x2="71.25" y2="129.39" gradientUnits="userSpaceOnUse"><stop offset="0.35" stop-color="#00ff79" stop-opacity="0"/><stop offset="0.46" stop-color="#00ff79" stop-opacity="0.01"/><stop offset="0.55" stop-color="#00ff79" stop-opacity="0.05"/><stop offset="0.63" stop-color="#00ff79" stop-opacity="0.12"/><stop offset="0.7" stop-color="#00ff79" stop-opacity="0.21"/><stop offset="0.78" stop-color="#00ff79" stop-opacity="0.34"/><stop offset="0.85" stop-color="#00ff79" stop-opacity="0.49"/><stop offset="0.92" stop-color="#00ff79" stop-opacity="0.66"/><stop offset="0.99" stop-color="#00ff79" stop-opacity="0.86"/><stop offset="1" stop-color="#00ff79" stop-opacity="0.9"/></linearGradient></defs><title>telecomunicaciones</title><g id="Layer_2" data-name="Layer 2"><g id="Layer_1-2" data-name="Layer 1"><circle class="cls-1" cx="71.25" cy="71.25" r="68.25"/><circle class="cls-2" cx="71.25" cy="71.25" r="51.53"/><circle class="cls-3" cx="71.25" cy="71.25" r="34.8"/><rect class="cls-4" x="12.27" y="37.27" width="117.96" height="92.12" rx="6.71"/><path class="cls-5" d="M111.49,49.06H30.05a4.38,4.38,0,0,0-4.45,4.33v65.05H36.06V62.07a3,3,0,0,1,3-3h65.37a3,3,0,0,1,3,3v56.37H116V53.35A4.38,4.38,0,0,0,111.49,49.06Z"/><path class="cls-6" d="M80.79,121.17H61.11l-3.25-2.73H34.16V61.51a4.33,4.33,0,0,1,4.41-4.23h65.36a4.33,4.33,0,0,1,4.41,4.23v56.93H84Zm-18.61-2.73H79.71L83,115.7h22.53V61.51A1.53,1.53,0,0,0,103.93,60H38.57A1.53,1.53,0,0,0,37,61.51V115.7H58.93Z"/><path class="cls-5" d="M71,106.92a4.1,4.1,0,1,1,4.27-4.1A4.19,4.19,0,0,1,71,106.92Z"/><path class="cls-5" d="M92,81.4a32.72,32.72,0,0,0-42,0l-1.89-2.05a35.65,35.65,0,0,1,45.83,0Z"/><path class="cls-5" d="M82.55,90.69l-.28-.22a19,19,0,0,0-22.61,0l-.27.21-1.8-2.12.31-.24a21.88,21.88,0,0,1,26.12,0l.31.23Z"/><path class="cls-6" d="M124,129.39H18.38a6,6,0,0,1-6.1-5.85V115.7H38v2.74H15.13v5.1a3.19,3.19,0,0,0,3.25,3.11H124a3.35,3.35,0,0,0,3.42-3.25v-5H103.59V115.7h26.63v7.7A6.15,6.15,0,0,1,124,129.39Z"/></g></g></svg>